<svg width="24" height="24" viewBox="0 0 24 24" fill="none" xmlns="http://www.w3.org/2000/svg">
<path d="M8.61523 16.7119C9.28426 16.7119 9.82703 17.2539 9.82715 17.9229C9.82715 18.592 9.28433 19.1348 8.61523 19.1348C7.94621 19.1347 7.4043 18.5919 7.4043 17.9229C7.40442 17.2539 7.94628 16.712 8.61523 16.7119ZM8.61523 11.0576C9.28433 11.0576 9.82715 11.6004 9.82715 12.2695C9.82699 12.9385 9.28423 13.4805 8.61523 13.4805C7.9463 13.4804 7.40446 12.9384 7.4043 12.2695C7.4043 11.6005 7.94621 11.0577 8.61523 11.0576ZM8.61523 5.4043C9.28429 5.4043 9.82707 5.94619 9.82715 6.61523C9.82715 7.28433 9.28433 7.82715 8.61523 7.82715C7.9462 7.82707 7.4043 7.28428 7.4043 6.61523C7.40438 5.94624 7.94625 5.40438 8.61523 5.4043Z" fill="#F7F7F8" stroke="#F7F7F8" stroke-width="0.807692"/>
<path fill-rule="evenodd" clip-rule="evenodd" d="M17.5003 6.61538C17.5003 7.50752 16.7771 8.23077 15.8849 8.23077C14.9928 8.23077 14.2695 7.50752 14.2695 6.61538C14.2695 5.72323 14.9928 5 15.8849 5C16.7771 5 17.5003 5.72323 17.5003 6.61538ZM15.8849 13.8846C16.7771 13.8846 17.5003 13.1614 17.5003 12.2692C17.5003 11.3771 16.7771 10.6538 15.8849 10.6538C14.9928 10.6538 14.2695 11.3771 14.2695 12.2692C14.2695 13.1614 14.9928 13.8846 15.8849 13.8846ZM15.8849 19.5385C16.7771 19.5385 17.5003 18.8152 17.5003 17.9231C17.5003 17.0309 16.7771 16.3077 15.8849 16.3077C14.9928 16.3077 14.2695 17.0309 14.2695 17.9231C14.2695 18.8152 14.9928 19.5385 15.8849 19.5385Z" fill="#F7F7F8"/>
</svg>
