<svg width="24" height="24" viewBox="0 0 24 24" fill="none" xmlns="http://www.w3.org/2000/svg">
<rect width="24" height="24" rx="4" fill="#41414B"/>
<g clip-path="url(#clip0_565_1764)">
<mask id="path-2-inside-1_565_1764" fill="white">
<path d="M10.24 4.54248C9.6 4.54248 9.0125 4.91998 8.7375 5.48498C9.4475 5.76248 9.8225 6.49248 9.6575 7.36498C9.635 7.48498 9.53 7.56748 9.4125 7.56748C9.3975 7.56748 9.3825 7.56748 9.3675 7.56248C9.33512 7.55699 9.30417 7.54507 9.27648 7.52742C9.24879 7.50977 9.22491 7.48675 9.20627 7.45971C9.18763 7.43268 9.17459 7.40218 9.16793 7.37002C9.16127 7.33787 9.16112 7.3047 9.1675 7.27248C9.2775 6.68498 9.0675 6.03498 8.355 5.89248H8.3525C8.33793 5.88982 8.32369 5.88563 8.31 5.87998C8.3075 5.87998 8.3025 5.87998 8.3 5.87748C8.08 5.77748 7.85 5.72748 7.6125 5.72748C6.69 5.72748 5.9375 6.47998 5.9375 7.40248C5.9375 7.62998 5.985 7.85248 6.075 8.06498L6.0825 8.08748C6.2125 8.41748 6.5475 8.57748 6.8675 8.45998C6.995 8.41248 7.14 8.47998 7.1875 8.60748C7.235 8.73748 7.1675 8.88248 7.0375 8.92998C6.9125 8.97498 6.785 8.99748 6.6575 8.99748C6.2775 8.99748 5.92 8.79748 5.7125 8.45998C4.995 8.65998 4.495 9.31248 4.495 10.0725C4.495 10.35 4.5625 10.62 4.6925 10.86C5.305 10.59 6.03 10.795 6.435 11.3825C6.46057 11.4203 6.47539 11.4643 6.47787 11.5098C6.48035 11.5553 6.4704 11.6007 6.44908 11.641C6.42777 11.6814 6.39589 11.7151 6.35686 11.7387C6.31782 11.7623 6.27311 11.7748 6.2275 11.775C6.1475 11.775 6.07 11.7375 6.0225 11.6675C5.725 11.2325 5.1675 11.115 4.7475 11.3975H4.745C4.74 11.4025 4.7375 11.405 4.7325 11.4075C4.51043 11.5384 4.32616 11.7247 4.19775 11.9482C4.06935 12.1717 4.0012 12.4247 4 12.6825C4 13.395 4.5075 14.01 5.2075 14.1425C5.25093 14.1507 5.2914 14.1703 5.32477 14.1993C5.35815 14.2283 5.38325 14.2656 5.3975 14.3075C5.425 14.395 5.405 14.49 5.3425 14.5575C5.05783 14.8667 4.90065 15.2722 4.9025 15.6925C4.9025 16.6125 5.6475 17.3625 6.565 17.3675C6.8725 17.2975 7.655 17.0225 7.7275 16.65C7.7525 16.515 7.8825 16.4275 8.02 16.4525C8.155 16.48 8.245 16.6125 8.2175 16.7475C8.0975 17.37 7.27 17.685 6.8325 17.8125C6.83867 18.0658 6.90973 18.3134 7.03888 18.5314C7.16804 18.7495 7.35096 18.9307 7.57018 19.0579C7.78939 19.1851 8.03756 19.2539 8.29096 19.2577C8.54436 19.2616 8.79451 19.2004 9.0175 19.08H9.02C9.0375 19.055 9.0625 19.0375 9.0925 19.0225C9.56 18.785 9.75 18.245 9.5275 17.7925C9.465 17.6675 9.515 17.5175 9.64 17.4575C9.66934 17.4427 9.70134 17.4338 9.73413 17.4314C9.76692 17.4291 9.79985 17.4332 9.83102 17.4437C9.86218 17.4542 9.89096 17.4707 9.91568 17.4924C9.94039 17.5141 9.96056 17.5404 9.975 17.57C10.2625 18.15 10.115 18.8175 9.6525 19.2375C9.885 19.38 10.1525 19.4575 10.4325 19.4575C11.03 19.4575 11.5775 19.09 11.805 18.5375V12.4975C11.4875 12.2075 11.04 12.1675 10.685 12.4075C10.6579 12.4259 10.6275 12.4387 10.5954 12.4454C10.5634 12.452 10.5303 12.4522 10.4982 12.4461C10.466 12.4399 10.4354 12.4275 10.408 12.4095C10.3807 12.3915 10.3571 12.3683 10.3387 12.3412C10.3204 12.3141 10.3075 12.2837 10.3009 12.2516C10.2943 12.2196 10.294 12.1865 10.3002 12.1544C10.3126 12.0895 10.3503 12.0321 10.405 11.995C10.6087 11.8557 10.8459 11.7734 11.0921 11.7567C11.3382 11.74 11.5844 11.7895 11.805 11.9V9.50998C11.4875 9.21998 11.04 9.17998 10.6825 9.41748C10.6275 9.45172 10.5613 9.46323 10.4979 9.44956C10.4346 9.4359 10.379 9.39813 10.343 9.34425C10.3069 9.29037 10.2933 9.22459 10.3048 9.16081C10.3164 9.09704 10.3523 9.04026 10.405 9.00248C10.6094 8.8647 10.8466 8.78355 11.0925 8.7673C11.3384 8.75105 11.5843 8.80028 11.805 8.90998V5.62498C11.6857 5.30647 11.4718 5.03207 11.1921 4.83858C10.9123 4.64509 10.5801 4.54177 10.24 4.54248ZM7.7475 14.9575C7.7325 14.9575 7.715 14.955 7.7 14.9525C6.93 14.8025 6.4425 14.0675 6.59 13.2775C6.615 13.1425 6.745 13.0525 6.8825 13.0775C7.0175 13.1025 7.1075 13.2325 7.08 13.37C6.985 13.885 7.2975 14.365 7.795 14.4625C7.93 14.4875 8.02 14.62 7.9925 14.755C7.97 14.875 7.865 14.9575 7.7475 14.9575ZM7.5975 10.54C7.4825 10.6175 7.3275 10.5875 7.25 10.4725C7.1725 10.3575 7.2025 10.2025 7.3175 10.125C7.9675 9.68748 8.8325 9.86248 9.2875 10.525C9.31307 10.5628 9.32789 10.6068 9.33037 10.6523C9.33285 10.6978 9.3229 10.7432 9.30158 10.7835C9.28027 10.8239 9.24839 10.8576 9.20936 10.8812C9.17032 10.9048 9.12561 10.9173 9.08 10.9175C9 10.9175 8.9225 10.8775 8.875 10.8075C8.5775 10.375 8.0175 10.2575 7.5975 10.54ZM10.48 14.4C10.4893 14.4656 10.4721 14.5323 10.4322 14.5852C10.3924 14.6382 10.3331 14.6732 10.2675 14.6825C10.1975 14.6925 10.13 14.6975 10.0625 14.6975C9.37 14.6975 8.7775 14.19 8.6675 13.4675C8.66246 13.435 8.66391 13.4018 8.67175 13.3698C8.67959 13.3379 8.69368 13.3078 8.7132 13.2813C8.73272 13.2548 8.75728 13.2324 8.78548 13.2155C8.81368 13.1985 8.84495 13.1873 8.8775 13.1825C8.91002 13.1774 8.94324 13.1788 8.97522 13.1866C9.0072 13.1944 9.03732 13.2085 9.06382 13.228C9.09033 13.2475 9.11269 13.2721 9.12963 13.3004C9.14657 13.3286 9.15774 13.3599 9.1625 13.3925C9.24 13.91 9.6975 14.2575 10.1975 14.1875C10.3325 14.165 10.46 14.2625 10.48 14.4ZM13.72 7.90498L14.05 7.36748C14.11 7.37998 14.1725 7.38998 14.2375 7.38998C14.7575 7.38998 15.18 6.96748 15.18 6.44748C15.18 6.19752 15.0807 5.95779 14.9039 5.78104C14.7272 5.60428 14.4875 5.50498 14.2375 5.50498C13.9875 5.50498 13.7478 5.60428 13.5711 5.78104C13.3943 5.95779 13.295 6.19752 13.295 6.44748C13.295 6.66748 13.3725 6.86248 13.4975 7.02498L13.26 7.40748H12.2275V8.05748H13.4425C13.5575 8.05748 13.6625 7.99998 13.72 7.90498Z"/>
</mask>
<path d="M10.24 4.54248C9.6 4.54248 9.0125 4.91998 8.7375 5.48498C9.4475 5.76248 9.8225 6.49248 9.6575 7.36498C9.635 7.48498 9.53 7.56748 9.4125 7.56748C9.3975 7.56748 9.3825 7.56748 9.3675 7.56248C9.33512 7.55699 9.30417 7.54507 9.27648 7.52742C9.24879 7.50977 9.22491 7.48675 9.20627 7.45971C9.18763 7.43268 9.17459 7.40218 9.16793 7.37002C9.16127 7.33787 9.16112 7.3047 9.1675 7.27248C9.2775 6.68498 9.0675 6.03498 8.355 5.89248H8.3525C8.33793 5.88982 8.32369 5.88563 8.31 5.87998C8.3075 5.87998 8.3025 5.87998 8.3 5.87748C8.08 5.77748 7.85 5.72748 7.6125 5.72748C6.69 5.72748 5.9375 6.47998 5.9375 7.40248C5.9375 7.62998 5.985 7.85248 6.075 8.06498L6.0825 8.08748C6.2125 8.41748 6.5475 8.57748 6.8675 8.45998C6.995 8.41248 7.14 8.47998 7.1875 8.60748C7.235 8.73748 7.1675 8.88248 7.0375 8.92998C6.9125 8.97498 6.785 8.99748 6.6575 8.99748C6.2775 8.99748 5.92 8.79748 5.7125 8.45998C4.995 8.65998 4.495 9.31248 4.495 10.0725C4.495 10.35 4.5625 10.62 4.6925 10.86C5.305 10.59 6.03 10.795 6.435 11.3825C6.46057 11.4203 6.47539 11.4643 6.47787 11.5098C6.48035 11.5553 6.4704 11.6007 6.44908 11.641C6.42777 11.6814 6.39589 11.7151 6.35686 11.7387C6.31782 11.7623 6.27311 11.7748 6.2275 11.775C6.1475 11.775 6.07 11.7375 6.0225 11.6675C5.725 11.2325 5.1675 11.115 4.7475 11.3975H4.745C4.74 11.4025 4.7375 11.405 4.7325 11.4075C4.51043 11.5384 4.32616 11.7247 4.19775 11.9482C4.06935 12.1717 4.0012 12.4247 4 12.6825C4 13.395 4.5075 14.01 5.2075 14.1425C5.25093 14.1507 5.2914 14.1703 5.32477 14.1993C5.35815 14.2283 5.38325 14.2656 5.3975 14.3075C5.425 14.395 5.405 14.49 5.3425 14.5575C5.05783 14.8667 4.90065 15.2722 4.9025 15.6925C4.9025 16.6125 5.6475 17.3625 6.565 17.3675C6.8725 17.2975 7.655 17.0225 7.7275 16.65C7.7525 16.515 7.8825 16.4275 8.02 16.4525C8.155 16.48 8.245 16.6125 8.2175 16.7475C8.0975 17.37 7.27 17.685 6.8325 17.8125C6.83867 18.0658 6.90973 18.3134 7.03888 18.5314C7.16804 18.7495 7.35096 18.9307 7.57018 19.0579C7.78939 19.1851 8.03756 19.2539 8.29096 19.2577C8.54436 19.2616 8.79451 19.2004 9.0175 19.08H9.02C9.0375 19.055 9.0625 19.0375 9.0925 19.0225C9.56 18.785 9.75 18.245 9.5275 17.7925C9.465 17.6675 9.515 17.5175 9.64 17.4575C9.66934 17.4427 9.70134 17.4338 9.73413 17.4314C9.76692 17.4291 9.79985 17.4332 9.83102 17.4437C9.86218 17.4542 9.89096 17.4707 9.91568 17.4924C9.94039 17.5141 9.96056 17.5404 9.975 17.57C10.2625 18.15 10.115 18.8175 9.6525 19.2375C9.885 19.38 10.1525 19.4575 10.4325 19.4575C11.03 19.4575 11.5775 19.09 11.805 18.5375V12.4975C11.4875 12.2075 11.04 12.1675 10.685 12.4075C10.6579 12.4259 10.6275 12.4387 10.5954 12.4454C10.5634 12.452 10.5303 12.4522 10.4982 12.4461C10.466 12.4399 10.4354 12.4275 10.408 12.4095C10.3807 12.3915 10.3571 12.3683 10.3387 12.3412C10.3204 12.3141 10.3075 12.2837 10.3009 12.2516C10.2943 12.2196 10.294 12.1865 10.3002 12.1544C10.3126 12.0895 10.3503 12.0321 10.405 11.995C10.6087 11.8557 10.8459 11.7734 11.0921 11.7567C11.3382 11.74 11.5844 11.7895 11.805 11.9V9.50998C11.4875 9.21998 11.04 9.17998 10.6825 9.41748C10.6275 9.45172 10.5613 9.46323 10.4979 9.44956C10.4346 9.4359 10.379 9.39813 10.343 9.34425C10.3069 9.29037 10.2933 9.22459 10.3048 9.16081C10.3164 9.09704 10.3523 9.04026 10.405 9.00248C10.6094 8.8647 10.8466 8.78355 11.0925 8.7673C11.3384 8.75105 11.5843 8.80028 11.805 8.90998V5.62498C11.6857 5.30647 11.4718 5.03207 11.1921 4.83858C10.9123 4.64509 10.5801 4.54177 10.24 4.54248ZM7.7475 14.9575C7.7325 14.9575 7.715 14.955 7.7 14.9525C6.93 14.8025 6.4425 14.0675 6.59 13.2775C6.615 13.1425 6.745 13.0525 6.8825 13.0775C7.0175 13.1025 7.1075 13.2325 7.08 13.37C6.985 13.885 7.2975 14.365 7.795 14.4625C7.93 14.4875 8.02 14.62 7.9925 14.755C7.97 14.875 7.865 14.9575 7.7475 14.9575ZM7.5975 10.54C7.4825 10.6175 7.3275 10.5875 7.25 10.4725C7.1725 10.3575 7.2025 10.2025 7.3175 10.125C7.9675 9.68748 8.8325 9.86248 9.2875 10.525C9.31307 10.5628 9.32789 10.6068 9.33037 10.6523C9.33285 10.6978 9.3229 10.7432 9.30158 10.7835C9.28027 10.8239 9.24839 10.8576 9.20936 10.8812C9.17032 10.9048 9.12561 10.9173 9.08 10.9175C9 10.9175 8.9225 10.8775 8.875 10.8075C8.5775 10.375 8.0175 10.2575 7.5975 10.54ZM10.48 14.4C10.4893 14.4656 10.4721 14.5323 10.4322 14.5852C10.3924 14.6382 10.3331 14.6732 10.2675 14.6825C10.1975 14.6925 10.13 14.6975 10.0625 14.6975C9.37 14.6975 8.7775 14.19 8.6675 13.4675C8.66246 13.435 8.66391 13.4018 8.67175 13.3698C8.67959 13.3379 8.69368 13.3078 8.7132 13.2813C8.73272 13.2548 8.75728 13.2324 8.78548 13.2155C8.81368 13.1985 8.84495 13.1873 8.8775 13.1825C8.91002 13.1774 8.94324 13.1788 8.97522 13.1866C9.0072 13.1944 9.03732 13.2085 9.06382 13.228C9.09033 13.2475 9.11269 13.2721 9.12963 13.3004C9.14657 13.3286 9.15774 13.3599 9.1625 13.3925C9.24 13.91 9.6975 14.2575 10.1975 14.1875C10.3325 14.165 10.46 14.2625 10.48 14.4ZM13.72 7.90498L14.05 7.36748C14.11 7.37998 14.1725 7.38998 14.2375 7.38998C14.7575 7.38998 15.18 6.96748 15.18 6.44748C15.18 6.19752 15.0807 5.95779 14.9039 5.78104C14.7272 5.60428 14.4875 5.50498 14.2375 5.50498C13.9875 5.50498 13.7478 5.60428 13.5711 5.78104C13.3943 5.95779 13.295 6.19752 13.295 6.44748C13.295 6.66748 13.3725 6.86248 13.4975 7.02498L13.26 7.40748H12.2275V8.05748H13.4425C13.5575 8.05748 13.6625 7.99998 13.72 7.90498Z" fill="#F7F7F8" stroke="#F7F7F8" stroke-width="0.5" mask="url(#path-2-inside-1_565_1764)"/>
<path d="M15.8195 9.63501L16.732 8.56751C16.782 8.50751 16.8095 8.43251 16.8095 8.35751V7.32751C17.167 7.19501 17.427 6.85251 17.427 6.44751C17.427 5.93001 17.002 5.50751 16.4845 5.50751C16.235 5.50751 15.9956 5.60646 15.8189 5.78267C15.6422 5.95889 15.5427 6.19797 15.542 6.44751C15.542 6.85251 15.7995 7.19751 16.1595 7.32751V8.23751L15.422 9.10001H12.2295V9.75001H15.572C15.667 9.75001 15.757 9.70751 15.8195 9.63501Z" fill="#F7F7F8"/>
<path d="M16.037 11.075L17.3245 9.59752H18.177C18.3095 9.95502 18.652 10.2125 19.057 10.2125C19.577 10.2125 19.9995 9.79002 19.9995 9.27002C19.9988 9.02048 19.8992 8.7814 19.7226 8.60518C19.5459 8.42897 19.3065 8.33002 19.057 8.33002C18.6495 8.33002 18.307 8.59002 18.177 8.94752H17.177C17.082 8.94752 16.992 8.98752 16.9295 9.05752L15.642 10.535H12.2295V11.185H15.792C15.887 11.185 15.977 11.145 16.037 11.075ZM14.2395 16.61C14.1745 16.61 14.112 16.62 14.052 16.6325L13.722 16.095C13.662 16 13.5595 15.9425 13.447 15.9425H12.232V16.5925H13.2645L13.4995 16.975C13.3745 17.135 13.297 17.3325 13.297 17.5525C13.297 17.8025 13.3963 18.0422 13.573 18.219C13.7498 18.3957 13.9895 18.495 14.2395 18.495C14.4895 18.495 14.7292 18.3957 14.9059 18.219C15.0827 18.0422 15.182 17.8025 15.182 17.5525C15.182 17.0325 14.7595 16.61 14.2395 16.61Z" fill="#F7F7F8"/>
<path d="M16.8095 16.6725V15.6425C16.8095 15.5675 16.782 15.4925 16.732 15.43L15.8195 14.3625C15.757 14.2925 15.667 14.25 15.572 14.25H12.2295V14.9H15.422L16.1595 15.7625V16.6725C15.7995 16.805 15.542 17.1475 15.542 17.5525C15.5427 17.802 15.6422 18.0411 15.8189 18.2173C15.9956 18.3935 16.235 18.4925 16.4845 18.4925C17.002 18.4925 17.427 18.07 17.427 17.5525C17.427 17.1475 17.167 16.8025 16.8095 16.6725Z" fill="#F7F7F8"/>
<path d="M19.057 13.7875C18.652 13.7875 18.3095 14.045 18.177 14.4025H17.3245L16.037 12.925C15.977 12.855 15.887 12.815 15.792 12.815H12.2295V13.465H15.642L16.9295 14.9425C16.9895 15.0125 17.0795 15.0525 17.177 15.0525H18.177C18.2425 15.2333 18.3622 15.3896 18.5196 15.5001C18.677 15.6105 18.8647 15.6699 19.057 15.67C19.3065 15.67 19.5459 15.571 19.7226 15.3948C19.8992 15.2186 19.9988 14.9795 19.9995 14.73C19.9995 14.21 19.577 13.7875 19.057 13.7875Z" fill="#F7F7F8"/>
</g>
<defs>
<clipPath id="clip0_565_1764">
<rect width="16" height="16" fill="white" transform="translate(4 4)"/>
</clipPath>
</defs>
</svg>
