<svg width="24" height="24" viewBox="0 0 24 24" fill="none" xmlns="http://www.w3.org/2000/svg">
<path d="M17.3125 17.3124L15.25 15.2499M11.1251 17.9999H9.19788C8.42932 17.9999 8.04445 17.9999 7.75061 17.8502C7.49189 17.7184 7.28169 17.5078 7.14987 17.2491C7 16.955 7 16.5701 7 15.8001V9.20007C7 8.43 7 8.04468 7.14987 7.75055C7.28169 7.49183 7.49189 7.28163 7.75061 7.14981C8.04474 6.99994 8.43006 6.99994 9.20013 6.99994H15.8001C16.5702 6.99994 16.9547 6.99994 17.2488 7.1498C17.5076 7.28163 17.7185 7.49183 17.8503 7.75055C18 8.04439 18 8.42925 18 9.19781V11.1251M13.5312 15.9374C12.2023 15.9374 11.125 14.8601 11.125 13.5312C11.125 12.2023 12.2023 11.1249 13.5312 11.1249C14.8602 11.1249 15.9375 12.2023 15.9375 13.5312C15.9375 14.8601 14.8602 15.9374 13.5312 15.9374Z" stroke="#B8B9C1" stroke-width="1.375" stroke-linecap="round" stroke-linejoin="round"/>
</svg>
