<svg width="24" height="24" viewBox="0 0 24 24" fill="none" xmlns="http://www.w3.org/2000/svg">
<path d="M5.71679 12.9701C7.08244 14.3277 9.4641 16.2096 12.1737 16.2096C14.8834 16.2096 17.2646 14.3277 18.6303 12.9701C18.9904 12.612 19.1711 12.4324 19.2858 12.0808C19.3676 11.83 19.3676 11.3798 19.2858 11.129C19.1711 10.7774 18.9904 10.5978 18.6302 10.2397C17.2646 8.882 14.8834 7.00012 12.1737 7.00012C9.4641 7.00012 7.08244 8.88201 5.71679 10.2397C5.35634 10.598 5.1761 10.7773 5.06137 11.129C4.97954 11.3798 4.97954 11.83 5.06137 12.0808C5.1761 12.4325 5.35634 12.6117 5.71679 12.9701Z" stroke="white" stroke-width="1.4" stroke-linecap="round" stroke-linejoin="round"/>
<path d="M10.6387 11.6049C10.6387 12.4526 11.3259 13.1398 12.1736 13.1398C13.0213 13.1398 13.7085 12.4526 13.7085 11.6049C13.7085 10.7572 13.0213 10.07 12.1736 10.07C11.3259 10.07 10.6387 10.7572 10.6387 11.6049Z" stroke="white" stroke-width="1.4" stroke-linecap="round" stroke-linejoin="round"/>
</svg>
