<svg width="85" height="22" viewBox="0 0 85 22" fill="none" xmlns="http://www.w3.org/2000/svg">
<path d="M7.924 13H6.256V16H4.936V7.384H7.924C9.856 7.384 11.104 8.368 11.104 10.168C11.104 11.98 9.856 13 7.924 13ZM7.912 8.5H6.256V11.884H7.912C9.076 11.884 9.784 11.248 9.784 10.18C9.784 9.112 9.076 8.5 7.912 8.5ZM16.3003 13.384V9.64H17.5123V16H16.3843V14.992C16.0483 15.652 15.3043 16.12 14.4403 16.12C13.1563 16.12 12.2683 15.364 12.2683 13.732V9.64H13.4803V13.492C13.4803 14.596 14.0323 15.052 14.8243 15.052C15.6403 15.052 16.3003 14.38 16.3003 13.384ZM25.2675 12.82C25.2675 14.728 24.1635 16.12 22.4475 16.12C21.5475 16.12 20.7795 15.664 20.3235 14.86V16H19.1955V7.384H20.4075V10.732C20.8515 9.952 21.5835 9.52 22.4475 9.52C24.1515 9.52 25.2675 10.888 25.2675 12.82ZM24.0075 12.82C24.0075 11.38 23.2515 10.588 22.2075 10.588C21.1995 10.588 20.4075 11.368 20.4075 12.796C20.4075 14.2 21.1755 15.04 22.2075 15.04C23.2515 15.04 24.0075 14.236 24.0075 12.82ZM27.7203 16H26.4963V7.384H27.7203V16ZM30.8785 8.164C30.8785 8.62 30.5185 8.968 30.0025 8.968C29.4865 8.968 29.1145 8.62 29.1145 8.164C29.1145 7.696 29.4865 7.36 30.0025 7.36C30.5185 7.36 30.8785 7.696 30.8785 8.164ZM30.6145 16H29.4025V9.64H30.6145V16ZM37.337 14.104C37.337 15.352 36.365 16.12 34.673 16.12C32.993 16.12 31.997 15.292 31.877 13.924H33.041C33.089 14.716 33.725 15.208 34.697 15.208C35.549 15.208 36.113 14.908 36.113 14.308C36.113 13.78 35.789 13.552 34.997 13.396L33.965 13.204C32.789 12.976 32.129 12.376 32.129 11.416C32.129 10.3 33.101 9.52 34.577 9.52C36.101 9.52 37.133 10.336 37.241 11.644H36.077C36.005 10.876 35.441 10.432 34.589 10.432C33.821 10.432 33.305 10.756 33.305 11.308C33.305 11.824 33.629 12.064 34.397 12.208L35.477 12.412C36.737 12.64 37.337 13.192 37.337 14.104ZM39.8723 12.412V16H38.6603V7.384H39.8723V10.66C40.2923 9.976 40.9403 9.52 41.8163 9.52C43.1243 9.52 43.9883 10.36 43.9883 11.884V16H42.7763V12.292C42.7763 11.2 42.2963 10.588 41.3963 10.588C40.5683 10.588 39.8723 11.284 39.8723 12.412ZM48.2138 16.12C46.3778 16.12 45.1418 14.788 45.1418 12.784C45.1418 10.9 46.4258 9.52 48.1778 9.52C50.0738 9.52 51.3338 11.056 51.1178 13.12H46.3778C46.4738 14.416 47.1218 15.172 48.1898 15.172C49.0898 15.172 49.7138 14.68 49.9178 13.852H51.1178C50.8058 15.268 49.7138 16.12 48.2138 16.12ZM48.1538 10.432C47.1818 10.432 46.5218 11.128 46.3898 12.316H49.8338C49.7738 11.14 49.1378 10.432 48.1538 10.432ZM51.8332 12.82C51.8332 10.888 52.9372 9.52 54.6532 9.52C55.5052 9.52 56.2492 9.952 56.6932 10.732V7.384H57.9052V16H56.7772V14.86C56.3212 15.664 55.5532 16.12 54.6532 16.12C52.9372 16.12 51.8332 14.728 51.8332 12.82ZM53.0932 12.82C53.0932 14.236 53.8372 15.04 54.8932 15.04C55.9252 15.04 56.6932 14.2 56.6932 12.796C56.6932 11.368 55.9012 10.588 54.8932 10.588C53.8372 10.588 53.0932 11.38 53.0932 12.82Z" fill="#41D29B"/>
<path fill-rule="evenodd" clip-rule="evenodd" d="M70.0264 3.5957C66.1555 3.5957 63.0176 6.73365 63.0176 10.6045C63.0176 14.4753 66.1555 17.6133 70.0264 17.6133C73.8972 17.6133 77.0352 14.4753 77.0352 10.6045C77.0352 6.73365 73.8972 3.5957 70.0264 3.5957ZM73.0645 9.4195C73.2898 9.14915 73.2533 8.74738 72.9829 8.5221C72.7126 8.29682 72.3108 8.33334 72.0855 8.60368L69.3464 11.8907L67.9283 10.4725C67.6794 10.2237 67.276 10.2237 67.0272 10.4725C66.7783 10.7213 66.7783 11.1248 67.0272 11.3736L68.9387 13.2851C69.0653 13.4117 69.2392 13.4792 69.4181 13.4711C69.5969 13.4629 69.7641 13.38 69.8787 13.2425L73.0645 9.4195Z" fill="#14B57E"/>
</svg>
