<svg width="23" height="24" viewBox="0 0 23 24" fill="none" xmlns="http://www.w3.org/2000/svg">
<path d="M9.83328 10.3333V8.31122C9.83328 7.50227 9.83328 7.09749 9.99071 6.78851C10.1292 6.51672 10.35 6.29592 10.6218 6.15743C10.9308 6 11.3356 6 12.1445 6H16.1889C16.9979 6 17.4021 6 17.7111 6.15743C17.9829 6.29592 18.2041 6.51672 18.3426 6.78851C18.5 7.09749 18.5 7.50197 18.5 8.31092V12.3553C18.5 13.1643 18.5 13.5688 18.3426 13.8778C18.2041 14.1495 17.9827 14.3708 17.7109 14.5093C17.4022 14.6666 16.9984 14.6666 16.191 14.6666H14.1666M9.83328 10.3333H7.81122C7.00227 10.3333 6.59749 10.3333 6.28851 10.4907C6.01672 10.6292 5.79592 10.85 5.65743 11.1218C5.5 11.4308 5.5 11.8356 5.5 12.6445V16.6889C5.5 17.4979 5.5 17.9021 5.65743 18.2111C5.79592 18.4829 6.01672 18.7041 6.28851 18.8426C6.59719 18.9998 7.00148 18.9998 7.80885 18.9998H11.858C12.6654 18.9998 13.0691 18.9998 13.3778 18.8426C13.6496 18.7041 13.8708 18.4827 14.0093 18.2109C14.1666 17.9022 14.1666 17.4984 14.1666 16.691V14.6666M9.83328 10.3333H11.8556C12.6646 10.3333 13.0688 10.3333 13.3778 10.4907C13.6496 10.6292 13.8708 10.85 14.0093 11.1218C14.1666 11.4305 14.1666 11.8348 14.1666 12.6422L14.1666 14.6666" stroke="#FF581C" stroke-width="1.44443" stroke-linecap="round" stroke-linejoin="round"/>
</svg>
