<svg width="22" height="24" viewBox="0 0 22 24" fill="none" xmlns="http://www.w3.org/2000/svg">
<path d="M15.2676 17.7955C14.3419 16.7617 12.9969 16.1111 11.5 16.1111C10.0031 16.1111 8.658 16.7617 7.73231 17.7955M11.5 19C7.91015 19 5 16.0899 5 12.5C5 8.91015 7.91015 6 11.5 6C15.0899 6 18 8.91015 18 12.5C18 16.0899 15.0899 19 11.5 19ZM11.5 13.9444C10.3034 13.9444 9.33333 12.9744 9.33333 11.7778C9.33333 10.5812 10.3034 9.61111 11.5 9.61111C12.6966 9.61111 13.6667 10.5812 13.6667 11.7778C13.6667 12.9744 12.6966 13.9444 11.5 13.9444Z" stroke="#F7F7F8" stroke-width="1.44444" stroke-linecap="round" stroke-linejoin="round"/>
</svg>
