<svg width="34" height="35" viewBox="0 0 34 35" fill="none" xmlns="http://www.w3.org/2000/svg">
<path fill-rule="evenodd" clip-rule="evenodd" d="M10.7618 17.781C10.87 21.1325 13.6219 23.8166 17 23.8166C20.3781 23.8166 23.1293 21.1325 23.2382 17.781C23.2402 17.7252 23.2209 17.6761 23.1824 17.6362C23.1432 17.5957 23.0954 17.5758 23.039 17.5758H10.9617C10.9059 17.5758 10.8574 17.5964 10.8182 17.6362C10.7791 17.6767 10.7605 17.7252 10.7625 17.781H10.7618ZM18.1621 2.80371C18.1621 2.16023 17.6415 1.6416 17 1.6416C16.3585 1.6416 15.8379 2.16223 15.8379 2.80371C15.8379 3.33031 16.1879 3.77457 16.668 3.91734V16.9117H17.332V3.91734C17.8102 3.77457 18.1621 3.33098 18.1621 2.80371ZM26.6037 7.56172C26.6037 6.91824 26.083 6.39961 25.4416 6.39961C24.915 6.39961 24.4707 6.74957 24.3279 7.22969H21.4897C21.3064 7.22969 21.1577 7.37844 21.1577 7.56172V16.9117H21.8218V7.89375H24.3279C24.4707 8.37387 24.9156 8.72383 25.4416 8.72383C26.0797 8.72383 26.6037 8.2052 26.6037 7.56172ZM7.39633 7.56172C7.39633 6.91824 7.91695 6.39961 8.55844 6.39961C9.08504 6.39961 9.5293 6.74957 9.67207 7.22969H12.5103C12.6936 7.22969 12.8423 7.37844 12.8423 7.56172V16.9117H12.1782V7.89375H9.67207C9.5293 8.37387 9.08438 8.72383 8.55844 8.72383C7.92027 8.72383 7.39633 8.2052 7.39633 7.56172ZM32.9375 12.8742C32.9375 12.2307 32.4169 11.7121 31.7754 11.7121C31.2488 11.7121 30.8045 12.0621 30.6618 12.5422H27.8236C27.6403 12.5422 27.4915 12.6909 27.4915 12.8742V16.9117H28.1556V13.2062H30.6618C30.8045 13.6864 31.2495 14.0363 31.7754 14.0363C32.4136 14.0363 32.9375 13.5177 32.9375 12.8742ZM1.0625 12.8742C1.0625 12.2307 1.58312 11.7121 2.22461 11.7121C2.75121 11.7121 3.19547 12.0621 3.33824 12.5422H6.17645C6.35973 12.5422 6.50848 12.6909 6.50848 12.8742V16.9117H5.84441V13.2062H3.33824C3.19547 13.6864 2.75055 14.0363 2.22461 14.0363C1.58645 14.0363 1.0625 13.5177 1.0625 12.8742ZM17 25.6521C21.3954 25.6521 24.9707 22.1412 25.0737 17.7704C25.0749 17.7183 25.0964 17.6689 25.1337 17.6325C25.1709 17.5961 25.2209 17.5758 25.2729 17.5758H32.6055C32.7927 17.5758 32.9415 17.7279 32.9375 17.9151C32.9282 18.3594 32.9003 18.799 32.8552 19.2339C32.7688 20.064 32.124 20.7022 31.2933 20.7792L28.989 20.993C27.7326 21.1099 27.1283 22.5848 27.9418 23.5497L29.4332 25.3174C29.9711 25.9556 29.9837 26.862 29.4631 27.5141C28.745 28.4136 27.9321 29.2331 27.0386 29.9586C26.3905 30.4845 25.4834 30.4798 24.8412 29.9466L23.0609 28.4691C22.0894 27.6629 20.6198 28.2791 20.5129 29.5362L20.317 31.8425C20.2466 32.6746 19.6131 33.3247 18.783 33.417C17.6397 33.5443 16.4861 33.5487 15.3418 33.4303C14.5118 33.3439 13.8736 32.6991 13.7966 31.8684L13.5827 29.5641C13.4659 28.3077 11.991 27.7034 11.0261 28.5169L9.25836 30.0084C8.6202 30.5463 7.71375 30.5589 7.06164 30.0382C6.16223 29.3201 5.34271 28.5073 4.61723 27.6137C4.09129 26.9656 4.09594 26.0585 4.62918 25.4164L6.10672 23.636C6.91289 22.6645 6.29664 21.1949 5.03957 21.088L2.73328 20.8921C1.90121 20.8217 1.25109 20.1882 1.15879 19.3581C1.10566 18.8827 1.07379 18.4005 1.06383 17.9131C1.0627 17.8689 1.07046 17.8248 1.08666 17.7836C1.10285 17.7424 1.12715 17.7049 1.15811 17.6733C1.18907 17.6416 1.22606 17.6165 1.2669 17.5994C1.30774 17.5823 1.35159 17.5736 1.39586 17.5738H8.72844C8.83668 17.5738 8.925 17.6601 8.92766 17.7684C9.03125 22.1392 12.6066 25.6501 17.0013 25.6501L17 25.6521Z" fill="#FF581C"/>
</svg>
