<svg width="22" height="22" viewBox="0 0 22 22" fill="none" xmlns="http://www.w3.org/2000/svg">
<g clip-path="url(#clip0_417_1028)">
<path d="M5.23242 14.9729V5.79894C5.23242 5.25826 5.44721 4.73972 5.82953 4.35739C6.21185 3.97507 6.73039 3.76028 7.27108 3.76028H16.7848C16.965 3.76028 17.1379 3.83188 17.2653 3.95932C17.3928 4.08676 17.4644 4.25961 17.4644 4.43984V16.6718C17.4644 16.852 17.3928 17.0248 17.2653 17.1523C17.1379 17.2797 16.965 17.3513 16.7848 17.3513H7.61085C6.98005 17.3513 6.37509 17.1007 5.92905 16.6547C5.48301 16.2087 5.23242 15.6037 5.23242 14.9729ZM16.1053 15.9922V13.9536H7.61085C7.34051 13.9536 7.08124 14.061 6.89008 14.2521C6.69892 14.4433 6.59153 14.7025 6.59153 14.9729C6.59153 15.2432 6.69892 15.5025 6.89008 15.6937C7.08124 15.8848 7.34051 15.9922 7.61085 15.9922H16.1053ZM9.98928 5.11939H7.27108C7.09085 5.11939 6.918 5.19098 6.79056 5.31842C6.66312 5.44587 6.59153 5.61871 6.59153 5.79894V12.8235C6.91002 12.6722 7.25827 12.594 7.61085 12.5945H16.1053V5.11939H14.7461V10.5558L12.3677 9.1967L9.98928 10.5558V5.11939Z" fill="#F7F7F8"/>
</g>
<defs>
<clipPath id="clip0_417_1028">
<rect width="22" height="22" fill="white"/>
</clipPath>
</defs>
</svg>
