<svg width="16" height="15" viewBox="0 0 16 15" fill="none" xmlns="http://www.w3.org/2000/svg">
<path d="M12.9294 0.175781H2.7508C2.11166 0.17649 1.4989 0.430703 1.04695 0.882646C0.59501 1.33459 0.340797 1.94735 0.340088 2.5865V9.01507C0.340797 9.65421 0.59501 10.267 1.04695 10.7189C1.4989 11.1709 2.11166 11.4251 2.7508 11.4258H3.55437V13.5686C3.55435 13.6705 3.58336 13.7703 3.63801 13.8562C3.69266 13.9422 3.77069 14.0108 3.86293 14.054C3.95518 14.0971 4.05784 14.1131 4.15885 14.1001C4.25987 14.087 4.35507 14.0454 4.43328 13.9801L7.49656 11.4258H12.9294C13.5685 11.4251 14.1813 11.1709 14.6332 10.7189C15.0852 10.267 15.3394 9.65421 15.3401 9.01507V2.5865C15.3394 1.94735 15.0852 1.33459 14.6332 0.882646C14.1813 0.430703 13.5685 0.17649 12.9294 0.175781ZM4.6258 6.87221C4.41389 6.87221 4.20674 6.80937 4.03055 6.69164C3.85435 6.57391 3.71703 6.40658 3.63593 6.2108C3.55484 6.01502 3.53362 5.79959 3.57496 5.59176C3.6163 5.38392 3.71835 5.19301 3.86819 5.04317C4.01803 4.89332 4.20894 4.79128 4.41678 4.74994C4.62461 4.7086 4.84004 4.72982 5.03582 4.81091C5.2316 4.892 5.39893 5.02933 5.51666 5.20553C5.63439 5.38172 5.69723 5.58887 5.69723 5.80078C5.69723 6.08494 5.58435 6.35746 5.38342 6.55839C5.18248 6.75933 4.90996 6.87221 4.6258 6.87221ZM7.84009 6.87221C7.62818 6.87221 7.42103 6.80937 7.24483 6.69164C7.06864 6.57391 6.93131 6.40658 6.85022 6.2108C6.76912 6.01502 6.74791 5.79959 6.78925 5.59176C6.83059 5.38392 6.93263 5.19301 7.08247 5.04317C7.23232 4.89332 7.42323 4.79128 7.63106 4.74994C7.8389 4.7086 8.05433 4.72982 8.25011 4.81091C8.44588 4.892 8.61322 5.02933 8.73095 5.20553C8.84868 5.38172 8.91152 5.58887 8.91152 5.80078C8.91152 6.08494 8.79863 6.35746 8.5977 6.55839C8.39677 6.75933 8.12425 6.87221 7.84009 6.87221ZM11.0544 6.87221C10.8425 6.87221 10.6353 6.80937 10.4591 6.69164C10.2829 6.57391 10.1456 6.40658 10.0645 6.2108C9.98341 6.01502 9.96219 5.79959 10.0035 5.59176C10.0449 5.38392 10.1469 5.19301 10.2968 5.04317C10.4466 4.89332 10.6375 4.79128 10.8453 4.74994C11.0532 4.7086 11.2686 4.72982 11.4644 4.81091C11.6602 4.892 11.8275 5.02933 11.9452 5.20553C12.063 5.38172 12.1258 5.58887 12.1258 5.80078C12.1258 6.08494 12.0129 6.35746 11.812 6.55839C11.6111 6.75933 11.3385 6.87221 11.0544 6.87221Z" fill="#D9D9DE"/>
</svg>
