<svg width="34" height="35" viewBox="0 0 34 35" fill="none" xmlns="http://www.w3.org/2000/svg">
<path d="M31.553 6.5H11.839C10.6338 6.5 9.65668 7.47711 9.65668 8.68236C9.65668 9.8876 10.6338 10.8647 11.839 10.8647H31.553C32.7582 10.8647 33.7354 9.8876 33.7354 8.68236C33.7354 7.47711 32.7582 6.5 31.553 6.5ZM22.4598 23.9589H3.18236C1.97711 23.9589 1 24.936 1 26.1412C1 27.3465 1.97711 28.3236 3.18236 28.3236H22.4598C23.6651 28.3236 24.6422 27.3465 24.6422 26.1412C24.6422 24.936 23.6651 23.9589 22.4598 23.9589ZM31.553 15.2294H3.18236C1.97711 15.2294 1 16.2065 1 17.4118C1 18.617 1.97711 19.5941 3.18236 19.5941H31.553C32.7582 19.5941 33.7354 18.617 33.7354 17.4118C33.7354 16.2065 32.7582 15.2294 31.553 15.2294Z" fill="#FF581C"/>
<path d="M31.553 28.3236C32.7582 28.3236 33.7353 27.3466 33.7353 26.1413C33.7353 24.936 32.7582 23.9589 31.553 23.9589C30.3477 23.9589 29.3706 24.936 29.3706 26.1413C29.3706 27.3466 30.3477 28.3236 31.553 28.3236Z" fill="#FF581C"/>
<path d="M3.18236 11.0102C4.38764 11.0102 5.36471 10.0331 5.36471 8.82786C5.36471 7.62258 4.38764 6.64551 3.18236 6.64551C1.97707 6.64551 1 7.62258 1 8.82786C1 10.0331 1.97707 11.0102 3.18236 11.0102Z" fill="#FF581C"/>
</svg>
