<svg width="24" height="24" viewBox="0 0 24 24" fill="none" xmlns="http://www.w3.org/2000/svg">
<path d="M17.9424 13.8398C17.9976 13.8399 18.0514 13.8555 18.0967 13.8857L18.1387 13.9209C18.1909 13.9731 18.2197 14.0443 18.2197 14.1182C18.2196 14.4929 18.0412 14.8514 17.6973 15.1777C17.396 15.4636 16.9687 15.7245 16.4258 15.9492L16.1865 16.043C14.9622 16.4992 13.3392 16.749 11.6172 16.749C10.1103 16.749 8.67963 16.5572 7.52539 16.2041L7.04785 16.043C6.39057 15.7983 5.88221 15.5042 5.53809 15.1777C5.19413 14.8514 5.01477 14.4929 5.01465 14.1182C5.01465 14.0626 5.0311 14.0084 5.06152 13.9629L5.0957 13.9209C5.1479 13.8687 5.21915 13.8398 5.29297 13.8398C5.34821 13.8398 5.40194 13.8556 5.44727 13.8857L5.49023 13.9209C5.54231 13.9731 5.57129 14.0444 5.57129 14.1182C5.57145 14.3681 5.73054 14.6224 6.01953 14.8623C6.309 15.1025 6.73114 15.3304 7.26367 15.5273C8.32913 15.9213 9.83872 16.1933 11.6172 16.1934C13.3958 16.1934 14.9062 15.9213 15.9717 15.5273C16.5042 15.3304 16.9264 15.1025 17.2158 14.8623C17.5048 14.6224 17.6639 14.3681 17.6641 14.1182C17.6641 14.0627 17.6796 14.0083 17.71 13.9629L17.7451 13.9209C17.7973 13.8687 17.8686 13.8398 17.9424 13.8398ZM17.9424 10.6035C17.9977 10.6036 18.0514 10.6201 18.0967 10.6504L18.1387 10.6855C18.1907 10.7377 18.2197 10.8081 18.2197 10.8818C18.2197 11.2567 18.0412 11.615 17.6973 11.9414C17.3961 12.2272 16.9687 12.4881 16.4258 12.7129L16.1865 12.8066C14.9622 13.262 13.3392 13.5137 11.6172 13.5137C10.1102 13.5136 8.67965 13.3209 7.52539 12.9678L7.04785 12.8066C6.39049 12.5619 5.88219 12.2679 5.53809 11.9414C5.19402 11.6149 5.01465 11.2567 5.01465 10.8818C5.01467 10.8265 5.03126 10.7729 5.06152 10.7275L5.0957 10.6855C5.1479 10.6334 5.21915 10.6035 5.29297 10.6035C5.3483 10.6035 5.40189 10.6202 5.44727 10.6504L5.49023 10.6855C5.54213 10.7377 5.57126 10.8083 5.57129 10.8818C5.57129 11.1316 5.73039 11.386 6.01953 11.626C6.309 11.8661 6.73114 12.094 7.26367 12.291C8.32913 12.6851 9.83871 12.957 11.6172 12.957C13.3958 12.957 14.9062 12.6852 15.9717 12.291C16.5042 12.094 16.9264 11.8661 17.2158 11.626C17.5049 11.386 17.6641 11.1316 17.6641 10.8818C17.6641 10.8266 17.6798 10.7729 17.71 10.7275L17.7451 10.6855C17.7973 10.6334 17.8686 10.6035 17.9424 10.6035ZM11.6172 5.01465C13.1242 5.01465 14.5549 5.20741 15.709 5.56055L16.1865 5.72168C16.8444 5.96646 17.3532 6.26037 17.6973 6.58691C18.0411 6.91335 18.2197 7.27166 18.2197 7.64648C18.2197 8.02134 18.0412 8.37968 17.6973 8.70605C17.3961 8.99183 16.9689 9.25281 16.4258 9.47754L16.1865 9.57129C14.9625 10.0267 13.3392 10.2773 11.6172 10.2773C10.1103 10.2773 8.67963 10.0856 7.52539 9.73242L7.04785 9.57129C6.39056 9.32658 5.88221 9.03246 5.53809 8.70605C5.19404 8.37963 5.01468 8.02119 5.01465 7.64648C5.01465 7.27174 5.19401 6.91344 5.53809 6.58691C5.83923 6.30116 6.26604 6.04012 6.80859 5.81543L7.04785 5.72168C8.27207 5.26633 9.89502 5.01469 11.6172 5.01465ZM11.6172 5.57129C9.83872 5.57133 8.32913 5.84334 7.26367 6.2373C6.73106 6.43426 6.30898 6.6621 6.01953 6.90234C5.73038 7.14235 5.57129 7.39641 5.57129 7.64648C5.57133 7.89652 5.73042 8.15068 6.01953 8.39062C6.309 8.63082 6.73108 8.85877 7.26367 9.05566C8.32913 9.44956 9.83872 9.72164 11.6172 9.72168C13.3958 9.72168 14.9062 9.44962 15.9717 9.05566C16.5042 8.85874 16.9264 8.63082 17.2158 8.39062C17.5049 8.15071 17.664 7.89644 17.6641 7.64648C17.6641 7.39654 17.5048 7.14229 17.2158 6.90234C16.9264 6.66216 16.5041 6.43425 15.9717 6.2373C14.9062 5.84327 13.3957 5.57129 11.6172 5.57129Z" fill="#B8B9C1" stroke="#B8B9C1" stroke-width="0.0292969"/>
<path d="M11.6176 20C9.89404 20 8.26953 19.7486 7.04316 19.2922C5.72568 18.802 5 18.1136 5 17.3536V7.64636C5 7.56866 5.03087 7.49414 5.08581 7.4392C5.14075 7.38426 5.21527 7.35339 5.29297 7.35339C5.37067 7.35339 5.44519 7.38426 5.50013 7.4392C5.55507 7.49414 5.58594 7.56866 5.58594 7.64636V17.3536C5.58594 18.3283 8.06299 19.414 11.6176 19.414C15.1722 19.414 17.6489 18.3283 17.6489 17.3536V7.64636C17.6489 7.56866 17.6798 7.49414 17.7347 7.4392C17.7897 7.38426 17.8642 7.35339 17.9419 7.35339C18.0196 7.35339 18.0941 7.38426 18.1491 7.4392C18.204 7.49414 18.2349 7.56866 18.2349 7.64636V17.3536C18.2349 18.1136 17.5095 18.802 16.1917 19.2922C14.9653 19.7486 13.3408 20 11.6176 20Z" fill="#B8B9C1"/>
<path d="M16.471 11.1752C16.4518 11.1752 16.4327 11.1732 16.4139 11.1694C16.3951 11.1656 16.3768 11.16 16.3591 11.1527C16.3413 11.1454 16.3244 11.1364 16.3084 11.1257C16.2763 11.1045 16.2488 11.077 16.2275 11.0449C16.217 11.0288 16.208 11.0119 16.2006 10.9942C16.1933 10.9765 16.1877 10.9581 16.1839 10.9394C16.1761 10.9016 16.1761 10.8626 16.1839 10.8248C16.1913 10.7871 16.206 10.7511 16.2274 10.7192C16.2488 10.6872 16.2763 10.6598 16.3084 10.6385C16.3244 10.6279 16.3413 10.6188 16.3591 10.6116C16.3768 10.6042 16.3951 10.5986 16.4139 10.5949C16.4517 10.5872 16.4906 10.5872 16.5284 10.5949C16.5851 10.6063 16.6371 10.6341 16.6781 10.6748C16.6917 10.6886 16.7039 10.7036 16.7148 10.7197C16.736 10.7515 16.7509 10.7873 16.7584 10.8248C16.7658 10.8627 16.7658 10.9016 16.7584 10.9394C16.7546 10.9581 16.749 10.9765 16.7417 10.9942C16.7343 11.0119 16.7253 11.0288 16.7148 11.0449C16.704 11.0608 16.6917 11.0758 16.6781 11.0894C16.6646 11.103 16.6496 11.1152 16.6336 11.1257C16.6177 11.1363 16.6008 11.1453 16.5832 11.1527C16.5655 11.1599 16.5472 11.1655 16.5284 11.1694C16.5095 11.1732 16.4903 11.1752 16.471 11.1752ZM15.2944 11.4694C15.2752 11.4693 15.2561 11.4674 15.2373 11.4635C15.2186 11.4597 15.2002 11.4541 15.1825 11.4468C15.1648 11.4395 15.1478 11.4305 15.1318 11.4199C15.1158 11.4093 15.1009 11.3971 15.0873 11.3835C15.06 11.3563 15.0384 11.324 15.0237 11.2883C15.0164 11.2706 15.0108 11.2523 15.007 11.2335C15.0032 11.2142 15.0013 11.1946 15.0015 11.1749C15.0014 11.1553 15.0032 11.1356 15.007 11.1163C15.0109 11.0976 15.0165 11.0793 15.0237 11.0616C15.0385 11.026 15.0601 10.9938 15.0873 10.9666C15.1009 10.9529 15.1158 10.9407 15.1318 10.93C15.1478 10.9194 15.1648 10.9103 15.1825 10.9031C15.2002 10.8957 15.2186 10.8901 15.2373 10.8864C15.275 10.8787 15.3139 10.8787 15.3516 10.8864C15.3703 10.8901 15.3887 10.8957 15.4064 10.9031C15.4241 10.9103 15.4411 10.9194 15.457 10.93C15.4891 10.9514 15.5166 10.979 15.5379 11.0112C15.5485 11.0271 15.5575 11.0439 15.5648 11.0616C15.5722 11.0792 15.5778 11.0976 15.5815 11.1163C15.5855 11.1356 15.5874 11.1553 15.5874 11.1749C15.5875 11.1946 15.5855 11.2142 15.5815 11.2335C15.5779 11.2523 15.5723 11.2707 15.5648 11.2883C15.5575 11.306 15.5485 11.323 15.5379 11.339C15.5167 11.3711 15.4892 11.3986 15.457 11.4199C15.4411 11.4305 15.4241 11.4395 15.4064 11.4468C15.3887 11.4541 15.3703 11.4597 15.3516 11.4635C15.3328 11.4674 15.3136 11.4693 15.2944 11.4694ZM14.1179 11.7635C14.0982 11.7635 14.0786 11.7616 14.0593 11.7576C14.0405 11.7538 14.0222 11.7482 14.0045 11.7409C13.9508 11.7191 13.9049 11.6815 13.873 11.6331C13.8623 11.6172 13.8533 11.6002 13.846 11.5825C13.8387 11.5648 13.8331 11.5464 13.8293 11.5277C13.8256 11.5089 13.8237 11.4897 13.8237 11.4705C13.8236 11.4509 13.8255 11.4312 13.8293 11.4119C13.8337 11.3933 13.8397 11.375 13.8475 11.3575C13.8622 11.322 13.8837 11.2898 13.9107 11.2625C13.9245 11.249 13.9395 11.2367 13.9556 11.2259C13.9715 11.2153 13.9883 11.2063 14.006 11.199C14.0237 11.1917 14.042 11.1861 14.0607 11.1823C14.0986 11.1746 14.1375 11.1746 14.1753 11.1823C14.1941 11.186 14.2124 11.1916 14.2301 11.199C14.2478 11.2064 14.2647 11.2154 14.2808 11.2259C14.2967 11.2367 14.3116 11.249 14.3253 11.2625C14.3389 11.2761 14.3511 11.291 14.3616 11.3071C14.3722 11.323 14.3812 11.3398 14.3886 11.3575C14.3958 11.3752 14.4014 11.3935 14.4053 11.4122C14.4092 11.4315 14.4112 11.4512 14.4111 11.4708C14.4111 11.49 14.4091 11.5092 14.4053 11.528C14.4015 11.5467 14.3959 11.5651 14.3886 11.5827C14.3813 11.6005 14.3723 11.6175 14.3616 11.6334C14.3511 11.6495 14.3389 11.6644 14.3253 11.678C14.3117 11.6915 14.2968 11.7037 14.2808 11.7143C14.2647 11.7248 14.2478 11.7338 14.2301 11.7412C14.2124 11.7486 14.1941 11.7542 14.1753 11.7579C14.1564 11.7617 14.1372 11.7636 14.1179 11.7635ZM16.471 14.4108C16.4518 14.4108 16.4327 14.409 16.4139 14.4052C16.3951 14.4014 16.3768 14.3958 16.3591 14.3885C16.3413 14.3812 16.3244 14.3722 16.3084 14.3616C16.2923 14.3509 16.2774 14.3386 16.2639 14.3249C16.2091 14.2699 16.1782 14.1955 16.178 14.1178C16.178 14.0981 16.18 14.0785 16.1839 14.0592C16.1877 14.0405 16.1933 14.0221 16.2006 14.0044C16.208 13.9867 16.217 13.9698 16.2275 13.9537C16.2382 13.9377 16.2503 13.9228 16.2639 13.9092C16.2774 13.8956 16.2924 13.8834 16.3084 13.8729C16.3244 13.8622 16.3413 13.8532 16.3591 13.8459C16.3768 13.8386 16.3951 13.833 16.4139 13.8292C16.4517 13.8216 16.4906 13.8216 16.5284 13.8292C16.566 13.8368 16.6017 13.8516 16.6336 13.8729C16.6496 13.8834 16.6646 13.8956 16.6781 13.9092C16.6917 13.9229 16.7039 13.9378 16.7148 13.9537C16.7253 13.9698 16.7343 13.9867 16.7417 14.0044C16.749 14.0221 16.7546 14.0405 16.7584 14.0592C16.7622 14.0785 16.7641 14.0981 16.764 14.1178C16.7638 14.1955 16.7329 14.2699 16.6781 14.3249C16.6646 14.3386 16.6497 14.3509 16.6336 14.3616C16.6017 14.3828 16.566 14.3977 16.5284 14.4052C16.5095 14.4089 16.4903 14.4108 16.471 14.4108ZM15.2944 14.7049C15.2753 14.705 15.2561 14.7031 15.2373 14.6993C15.2186 14.6956 15.2002 14.69 15.1825 14.6826C15.1648 14.6754 15.1478 14.6663 15.1318 14.6557C15.1158 14.6451 15.1009 14.633 15.0873 14.6194C15.0738 14.6057 15.0615 14.5908 15.0507 14.5748C15.0402 14.5588 15.0311 14.5418 15.0237 14.5241C15.0164 14.5065 15.0108 14.4881 15.007 14.4694C14.9996 14.4315 14.9996 14.3926 15.007 14.3548C15.0108 14.3361 15.0164 14.3177 15.0237 14.3C15.0311 14.2823 15.0402 14.2654 15.0507 14.2493C15.0615 14.2334 15.0738 14.2185 15.0873 14.2048C15.1009 14.1912 15.1158 14.179 15.1318 14.1685C15.1478 14.1578 15.1648 14.1488 15.1825 14.1415C15.2002 14.1342 15.2186 14.1286 15.2373 14.1248C15.275 14.1172 15.3139 14.1172 15.3516 14.1248C15.3703 14.1286 15.3887 14.1342 15.4064 14.1415C15.4241 14.1488 15.4411 14.1578 15.457 14.1685C15.4731 14.179 15.488 14.1912 15.5016 14.2048C15.5151 14.2184 15.5273 14.2333 15.5379 14.2493C15.5484 14.2654 15.5574 14.2823 15.5648 14.3C15.5723 14.3177 15.5779 14.336 15.5815 14.3548C15.5894 14.3926 15.5894 14.4316 15.5815 14.4694C15.5779 14.4882 15.5723 14.5065 15.5648 14.5241C15.5574 14.5418 15.5484 14.5588 15.5379 14.5748C15.5273 14.5908 15.5151 14.6057 15.5016 14.6194C15.488 14.633 15.4731 14.6451 15.457 14.6557C15.4411 14.6663 15.4241 14.6754 15.4064 14.6826C15.3887 14.69 15.3703 14.6956 15.3516 14.6993C15.3328 14.7031 15.3136 14.705 15.2944 14.7049ZM14.1179 14.9991C14.0982 14.9992 14.0786 14.9973 14.0593 14.9935C14.0405 14.9897 14.0222 14.9841 14.0045 14.9768C13.969 14.9619 13.9367 14.9405 13.9093 14.9135C13.8821 14.8862 13.8606 14.8539 13.846 14.8183C13.8387 14.8006 13.8331 14.7823 13.8293 14.7635C13.8256 14.7447 13.8237 14.7256 13.8237 14.7064C13.8239 14.6287 13.8546 14.5542 13.9093 14.499C13.9231 14.4855 13.9381 14.4733 13.9541 14.4626C13.97 14.452 13.9869 14.443 14.0045 14.4357C14.0222 14.4284 14.0405 14.4228 14.0593 14.419C14.1161 14.4074 14.1751 14.4131 14.2287 14.4353C14.2823 14.4575 14.3281 14.4952 14.3602 14.5435C14.3707 14.5595 14.3797 14.5765 14.3871 14.5942C14.3944 14.6118 14.4 14.6302 14.4038 14.649C14.4116 14.6867 14.4116 14.7257 14.4038 14.7635C14.4 14.7823 14.3944 14.8006 14.3871 14.8183C14.3797 14.836 14.3707 14.8529 14.3602 14.869C14.339 14.9011 14.3114 14.9286 14.2793 14.9498C14.2633 14.9604 14.2463 14.9694 14.2286 14.9768C14.2109 14.9841 14.1926 14.9897 14.1738 14.9935C14.1554 14.9971 14.1367 14.999 14.1179 14.9991ZM16.471 17.6466C16.4518 17.6467 16.4327 17.6448 16.4139 17.641C16.3951 17.6373 16.3768 17.6317 16.3591 17.6243C16.3414 17.6172 16.3244 17.6082 16.3084 17.5977C16.2924 17.5869 16.2775 17.5747 16.2639 17.5611C16.2503 17.5475 16.2381 17.5326 16.2275 17.5165C16.217 17.5006 16.2079 17.4838 16.2006 17.4661C16.1933 17.4484 16.1877 17.4301 16.1839 17.4114C16.18 17.3921 16.178 17.3724 16.178 17.3528C16.1781 17.3336 16.18 17.3144 16.1839 17.2956C16.1877 17.2769 16.1933 17.2585 16.2006 17.2408C16.2079 17.2231 16.2169 17.2061 16.2275 17.1902C16.2488 17.158 16.2763 17.1305 16.3084 17.1093C16.3244 17.0987 16.3413 17.0896 16.3591 17.0824C16.3768 17.075 16.3951 17.0694 16.4139 17.0657C16.4517 17.058 16.4906 17.058 16.5284 17.0657C16.5472 17.0695 16.5655 17.0751 16.5832 17.0824C16.6008 17.0897 16.6177 17.0987 16.6336 17.1093C16.6496 17.1199 16.6646 17.132 16.6781 17.1456C16.6917 17.1593 16.704 17.1742 16.7148 17.1902C16.7254 17.2061 16.7344 17.2231 16.7417 17.2408C16.749 17.2585 16.7546 17.2769 16.7584 17.2956C16.7622 17.3144 16.764 17.3336 16.764 17.3528C16.7641 17.3724 16.7622 17.3921 16.7584 17.4114C16.7546 17.4301 16.749 17.4484 16.7417 17.4661C16.7234 17.5107 16.6943 17.5501 16.6571 17.5808C16.6199 17.6114 16.5757 17.6324 16.5284 17.6419C16.5095 17.6454 16.4902 17.6469 16.471 17.6466ZM15.2944 17.9408C15.2753 17.9408 15.2561 17.9389 15.2373 17.9352C15.2186 17.9314 15.2002 17.9258 15.1825 17.9185C15.1648 17.9112 15.1478 17.9022 15.1318 17.8915C15.0998 17.87 15.0722 17.8424 15.0507 17.8104C15.0403 17.7944 15.0314 17.7776 15.024 17.76C15.0166 17.7424 15.011 17.724 15.0073 17.7052C15.0034 17.6859 15.0015 17.6663 15.0015 17.6466C15.0015 17.6274 15.0035 17.6083 15.0073 17.5895C15.011 17.5707 15.0166 17.5523 15.024 17.5347C15.0313 17.517 15.0403 17.5 15.0507 17.484C15.0614 17.468 15.0737 17.4531 15.0873 17.4395C15.1009 17.4259 15.1158 17.4137 15.1318 17.4032C15.1478 17.3925 15.1648 17.3835 15.1825 17.3762C15.2002 17.3689 15.2186 17.3633 15.2373 17.3595C15.275 17.3519 15.3139 17.3519 15.3516 17.3595C15.3703 17.3633 15.3887 17.3689 15.4064 17.3762C15.4241 17.3835 15.4411 17.3925 15.457 17.4032C15.4731 17.4137 15.488 17.4259 15.5016 17.4395C15.5151 17.4531 15.5273 17.468 15.5379 17.484C15.5485 17.5 15.5576 17.517 15.5648 17.5347C15.5723 17.5523 15.5779 17.5707 15.5815 17.5895C15.5854 17.6083 15.5874 17.6274 15.5874 17.6466C15.5874 17.6663 15.5855 17.6859 15.5815 17.7052C15.5779 17.724 15.5723 17.7424 15.5648 17.76C15.5575 17.7776 15.5485 17.7945 15.5379 17.8104C15.5273 17.8264 15.5152 17.8414 15.5016 17.8549C15.4879 17.8685 15.473 17.8808 15.457 17.8915C15.4411 17.9022 15.4241 17.9112 15.4064 17.9185C15.3887 17.9258 15.3703 17.9314 15.3516 17.9352C15.3328 17.9389 15.3136 17.9408 15.2944 17.9408ZM14.1179 18.2352C14.0982 18.2352 14.0786 18.2332 14.0593 18.2293C14.0405 18.2255 14.0222 18.2199 14.0045 18.2126C13.951 18.1904 13.9052 18.1529 13.8731 18.1047C13.8409 18.0565 13.8237 17.9999 13.8237 17.9419C13.8237 17.9227 13.8256 17.9036 13.8293 17.8848C13.8331 17.866 13.8387 17.8477 13.846 17.83C13.8606 17.7944 13.8821 17.7621 13.9093 17.7348C13.9367 17.7078 13.969 17.6864 14.0045 17.6715C14.0222 17.6642 14.0405 17.6586 14.0593 17.6548C14.0971 17.6472 14.136 17.6472 14.1738 17.6548C14.1926 17.6586 14.2109 17.6642 14.2286 17.6715C14.2463 17.6789 14.2633 17.6879 14.2793 17.6985C14.3114 17.7197 14.339 17.7472 14.3602 17.7793C14.3707 17.7954 14.3797 17.8123 14.3871 17.83C14.3944 17.8477 14.4 17.866 14.4038 17.8848C14.4076 17.9036 14.4096 17.9227 14.4097 17.9419C14.4097 17.9901 14.3978 18.0376 14.375 18.0801C14.3523 18.1227 14.3194 18.1589 14.2793 18.1857C14.2633 18.1962 14.2463 18.2052 14.2286 18.2126C14.2109 18.22 14.1926 18.2255 14.1738 18.2293C14.1554 18.2331 14.1367 18.2351 14.1179 18.2352Z" fill="#B8B9C1"/>
</svg>
