<svg width="19" height="18" viewBox="0 0 19 18" fill="none" xmlns="http://www.w3.org/2000/svg">
<path d="M13.8936 16.4704C13.1685 16.4704 12.5094 16.009 12.2457 15.2839C12.2457 15.218 12.2457 15.1521 12.1798 15.1521H6.31327C6.31327 15.218 6.31327 15.2839 6.24736 15.2839C6.04961 16.009 5.39045 16.4704 4.66538 16.4704C4.26988 16.4704 4.00622 16.734 4.00622 17.1295C4.00622 17.525 4.26988 17.7887 4.66538 17.7887H13.8936C14.2891 17.7887 14.5527 17.525 14.5527 17.1295C14.5527 16.734 14.2891 16.4704 13.8936 16.4704ZM16.5302 -0.00857544H2.02874C0.908175 -0.00857544 0.0512695 0.84833 0.0512695 1.9689V11.8563C0.0512695 12.9768 0.908175 13.8337 2.02874 13.8337H16.5302C17.6508 13.8337 18.5077 12.9768 18.5077 11.8563V1.9689C18.5077 0.84833 17.6508 -0.00857544 16.5302 -0.00857544ZM15.2119 7.90132H11.9161C11.7184 7.90132 11.5206 7.76949 11.3888 7.63766L10.7955 6.71484L9.93864 8.82414C9.80681 9.02189 9.54315 9.21964 9.27948 9.21964C9.01582 9.21964 8.81807 9.08781 8.68624 8.82414L7.76342 6.9785L7.10426 7.63766C6.97243 7.83541 6.8406 7.90132 6.64285 7.90132H3.34706C2.95157 7.90132 2.6879 7.63766 2.6879 7.24216C2.6879 6.84667 2.95157 6.58301 3.34706 6.58301H6.37919L7.49976 5.46244C7.63159 5.33061 7.89525 5.26469 8.093 5.26469C8.29075 5.33061 8.48849 5.46244 8.55441 5.59427L9.21357 6.91259L10.0046 5.00103C10.0705 4.80328 10.3341 4.60553 10.5319 4.60553C10.7955 4.60553 10.9933 4.67145 11.1251 4.86919L12.2457 6.58301H15.2119C15.6074 6.58301 15.8711 6.84667 15.8711 7.24216C15.8711 7.63766 15.6074 7.90132 15.2119 7.90132Z" fill="#D9D9DE"/>
</svg>
