<svg width="34" height="35" viewBox="0 0 34 35" fill="none" xmlns="http://www.w3.org/2000/svg">
<path d="M25.5255 9.88282C26.3613 9.88282 27.0388 9.20528 27.0388 8.36948C27.0388 7.53369 26.3613 6.85614 25.5255 6.85614C24.6897 6.85614 24.0121 7.53369 24.0121 8.36948C24.0121 9.20528 24.6897 9.88282 25.5255 9.88282Z" fill="#FF581C"/>
<path d="M8.47513 28.1438C9.31093 28.1438 9.98848 27.4663 9.98848 26.6305C9.98848 25.7947 9.31093 25.1171 8.47513 25.1171C7.63934 25.1171 6.96179 25.7947 6.96179 26.6305C6.96179 27.4663 7.63934 28.1438 8.47513 28.1438Z" fill="#FF581C"/>
<path d="M21.1868 6.85614H7.51627C6.6805 6.85614 6.00292 7.53371 6.00292 8.36948C6.00292 9.20525 6.6805 9.88282 7.51627 9.88282H21.1868C22.0226 9.88282 22.7001 9.20525 22.7001 8.36948C22.7001 7.53371 22.0226 6.85614 21.1868 6.85614ZM8.82783 18.9629H1.51334C0.677574 18.9629 0 19.6405 0 20.4762C0 21.312 0.677574 21.9896 1.51334 21.9896H8.82783C9.6636 21.9896 10.3412 21.312 10.3412 20.4762C10.3412 19.6405 9.6636 18.9629 8.82783 18.9629ZM21.1868 12.9095H1.51334C0.677574 12.9095 0 13.5871 0 14.4229C0 15.2586 0.677574 15.9362 1.51334 15.9362H21.1868C22.0226 15.9362 22.7001 15.2586 22.7001 14.4229C22.7001 13.5871 22.0226 12.9095 21.1868 12.9095Z" fill="#FF581C"/>
<path d="M12.8132 28.1439L26.4838 28.1439C27.3195 28.1439 27.9971 27.4663 27.9971 26.6305C27.9971 25.7947 27.3195 25.1172 26.4838 25.1172L12.8132 25.1172C11.9775 25.1172 11.2999 25.7947 11.2999 26.6305C11.2999 27.4663 11.9775 28.1439 12.8132 28.1439ZM25.1722 16.0371L32.4867 16.0371C33.3225 16.0371 34 15.3595 34 14.5238C34 13.688 33.3225 13.0104 32.4867 13.0104L25.1722 13.0104C24.3364 13.0104 23.6589 13.688 23.6589 14.5238C23.6589 15.3595 24.3364 16.0371 25.1722 16.0371ZM12.8132 22.0905L32.4867 22.0905C33.3225 22.0905 34 21.4129 34 20.5771C34 19.7414 33.3225 19.0638 32.4867 19.0638L12.8132 19.0638C11.9775 19.0638 11.2999 19.7414 11.2999 20.5771C11.2999 21.4129 11.9775 22.0905 12.8132 22.0905Z" fill="#FF581C"/>
</svg>
