<svg width="24" height="24" viewBox="0 0 24 24" fill="none" xmlns="http://www.w3.org/2000/svg">
<mask id="path-1-inside-1_478_1558" fill="white">
<path d="M15.079 9H9.921C9.67682 9.00026 9.44271 9.09738 9.27005 9.27005C9.09738 9.44271 9.00026 9.67682 9 9.921V15.079C9 15.587 9.413 16 9.921 16H15.079C15.3232 15.9997 15.5573 15.9026 15.73 15.73C15.9026 15.5573 15.9997 15.3232 16 15.079V9.921C15.9997 9.67682 15.9026 9.44271 15.73 9.27005C15.5573 9.09738 15.3232 9.00026 15.079 9ZM15 15H10V10H15V15Z"/>
</mask>
<path d="M15.079 9H9.921C9.67682 9.00026 9.44271 9.09738 9.27005 9.27005C9.09738 9.44271 9.00026 9.67682 9 9.921V15.079C9 15.587 9.413 16 9.921 16H15.079C15.3232 15.9997 15.5573 15.9026 15.73 15.73C15.9026 15.5573 15.9997 15.3232 16 15.079V9.921C15.9997 9.67682 15.9026 9.44271 15.73 9.27005C15.5573 9.09738 15.3232 9.00026 15.079 9ZM15 15H10V10H15V15Z" fill="#B8B9C1"/>
<path d="M15.079 9L15.0906 -1.66667H15.079V9ZM9.921 9V-1.66667L9.90944 -1.66666L9.921 9ZM9 9.921L-1.66667 9.90944V9.921H9ZM15.079 16V26.6667L15.0906 26.6667L15.079 16ZM16 15.079L26.6667 15.0906V15.079H16ZM16 9.921H26.6667L26.6667 9.90944L16 9.921ZM15 15V25.6667H25.6667V15H15ZM10 15H-0.666667V25.6667H10V15ZM10 10V-0.666667H-0.666667V10H10ZM15 10H25.6667V-0.666667H15V10ZM15.079 9V-1.66667H9.921V9V19.6667H15.079V9ZM9.921 9L9.90944 -1.66666C6.84028 -1.66333 3.89779 -0.442638 1.72757 1.72757L9.27005 9.27005L16.8125 16.8125C14.9876 18.6374 12.5134 19.6639 9.93256 19.6667L9.921 9ZM9.27005 9.27005L1.72757 1.72757C-0.442638 3.89779 -1.66333 6.84028 -1.66666 9.90944L9 9.921L19.6667 9.93256C19.6639 12.5134 18.6374 14.9876 16.8125 16.8125L9.27005 9.27005ZM9 9.921H-1.66667V15.079H9H19.6667V9.921H9ZM9 15.079H-1.66667C-1.66667 21.478 3.52197 26.6667 9.921 26.6667V16V5.33333C15.304 5.33333 19.6667 9.69596 19.6667 15.079H9ZM9.921 16V26.6667H15.079V16V5.33333H9.921V16ZM15.079 16L15.0906 26.6667C18.1597 26.6633 21.1022 25.4426 23.2724 23.2724L15.73 15.73L8.18748 8.18748C10.0124 6.3626 12.4866 5.33614 15.0674 5.33334L15.079 16ZM15.73 15.73L23.2724 23.2724C25.4426 21.1022 26.6633 18.1597 26.6667 15.0906L16 15.079L5.33334 15.0674C5.33614 12.4866 6.3626 10.0124 8.18748 8.18748L15.73 15.73ZM16 15.079H26.6667V9.921H16H5.33333V15.079H16ZM16 9.921L26.6667 9.90944C26.6633 6.84028 25.4426 3.89779 23.2724 1.72757L15.73 9.27005L8.18748 16.8125C6.36259 14.9876 5.33614 12.5134 5.33334 9.93256L16 9.921ZM15.73 9.27005L23.2724 1.72757C21.1022 -0.442635 18.1597 -1.66333 15.0906 -1.66666L15.079 9L15.0674 19.6667C12.4866 19.6639 10.0124 18.6374 8.18748 16.8125L15.73 9.27005ZM15 15V4.33333H10V15V25.6667H15V15ZM10 15H20.6667V10H10H-0.666667V15H10ZM10 10V20.6667H15V10V-0.666667H10V10ZM15 10H4.33333V15H15H25.6667V10H15Z" fill="#B8B9C1" mask="url(#path-1-inside-1_478_1558)"/>
<path d="M19.5 13C19.6326 13 19.7598 12.9473 19.8536 12.8536C19.9473 12.7598 20 12.6326 20 12.5C20 12.3674 19.9473 12.2402 19.8536 12.1464C19.7598 12.0527 19.6326 12 19.5 12H18V10H19.5C19.6326 10 19.7598 9.94732 19.8536 9.85355C19.9473 9.75979 20 9.63261 20 9.5C20 9.36739 19.9473 9.24021 19.8536 9.14645C19.7598 9.05268 19.6326 9 19.5 9H18V8.8915C17.9995 8.39001 17.8 7.9092 17.4454 7.55459C17.0908 7.19998 16.61 7.00053 16.1085 7H16V5.5C16 5.36739 15.9473 5.24021 15.8536 5.14645C15.7598 5.05268 15.6326 5 15.5 5C15.3674 5 15.2402 5.05268 15.1464 5.14645C15.0527 5.24021 15 5.36739 15 5.5V7H13V5.5C13 5.36739 12.9473 5.24021 12.8536 5.14645C12.7598 5.05268 12.6326 5 12.5 5C12.3674 5 12.2402 5.05268 12.1464 5.14645C12.0527 5.24021 12 5.36739 12 5.5V7H10V5.5C10 5.36739 9.94732 5.24021 9.85355 5.14645C9.75979 5.05268 9.63261 5 9.5 5C9.36739 5 9.24021 5.05268 9.14645 5.14645C9.05268 5.24021 9 5.36739 9 5.5V7H8.8915C8.39001 7.00053 7.9092 7.19998 7.55459 7.55459C7.19998 7.9092 7.00053 8.39001 7 8.8915V9H5.5C5.36739 9 5.24021 9.05268 5.14645 9.14645C5.05268 9.24021 5 9.36739 5 9.5C5 9.63261 5.05268 9.75979 5.14645 9.85355C5.24021 9.94732 5.36739 10 5.5 10H7V12H5.5C5.36739 12 5.24021 12.0527 5.14645 12.1464C5.05268 12.2402 5 12.3674 5 12.5C5 12.6326 5.05268 12.7598 5.14645 12.8536C5.24021 12.9473 5.36739 13 5.5 13H7V15H5.5C5.36739 15 5.24021 15.0527 5.14645 15.1464C5.05268 15.2402 5 15.3674 5 15.5C5 15.6326 5.05268 15.7598 5.14645 15.8536C5.24021 15.9473 5.36739 16 5.5 16H7V16.1085C7.00053 16.61 7.19998 17.0908 7.55459 17.4454C7.9092 17.8 8.39001 17.9995 8.8915 18H9V19.5C9 19.6326 9.05268 19.7598 9.14645 19.8536C9.24021 19.9473 9.36739 20 9.5 20C9.63261 20 9.75979 19.9473 9.85355 19.8536C9.94732 19.7598 10 19.6326 10 19.5V18H12V19.5C12 19.6326 12.0527 19.7598 12.1464 19.8536C12.2402 19.9473 12.3674 20 12.5 20C12.6326 20 12.7598 19.9473 12.8536 19.8536C12.9473 19.7598 13 19.6326 13 19.5V18H15V19.5C15 19.6326 15.0527 19.7598 15.1464 19.8536C15.2402 19.9473 15.3674 20 15.5 20C15.6326 20 15.7598 19.9473 15.8536 19.8536C15.9473 19.7598 16 19.6326 16 19.5V18H16.1085C16.61 17.9995 17.0908 17.8 17.4454 17.4454C17.8 17.0908 17.9995 16.61 18 16.1085V16H19.5C19.6326 16 19.7598 15.9473 19.8536 15.8536C19.9473 15.7598 20 15.6326 20 15.5C20 15.3674 19.9473 15.2402 19.8536 15.1464C19.7598 15.0527 19.6326 15 19.5 15H18V13H19.5ZM17 16.1085C17 16.6 16.6 17 16.1085 17H8.8915C8.4 17 8 16.6 8 16.1085V8.8915C8 8.4 8.4 8 8.8915 8H16.1085C16.6 8 17 8.4 17 8.8915V16.1085Z" fill="#B8B9C1"/>
</svg>
