<svg width="29" height="37" viewBox="0 0 29 37" fill="none" xmlns="http://www.w3.org/2000/svg">
<path d="M8.46175 12.5002L19.8852 23.9236M17.3863 21.6074C16.4206 22.1276 15.3291 22.4956 14.1735 22.4956C11.6527 22.4956 9.43728 20.7449 8.16682 19.4819C7.83147 19.1485 7.66382 18.9818 7.5571 18.6546C7.48098 18.4213 7.48096 18.0024 7.5571 17.7691C7.66386 17.4419 7.83185 17.2748 8.16787 16.9408C8.80821 16.3043 9.68843 15.5442 10.7267 14.9468M19.5282 20.0921C19.766 19.883 19.9838 19.6772 20.1792 19.483L20.1813 19.4808C20.5159 19.1482 20.6836 18.9815 20.7901 18.655C20.8663 18.4216 20.8661 18.0026 20.79 17.7692C20.6833 17.4422 20.5155 17.275 20.1803 16.9418C18.9099 15.6788 16.6942 13.9281 14.1735 13.9281C13.9325 13.9281 13.6943 13.9441 13.4595 13.9741M15.118 19.2828C14.8663 19.505 14.5356 19.6398 14.1735 19.6398C13.3848 19.6398 12.7455 19.0005 12.7455 18.2119C12.7455 17.8267 12.8981 17.4773 13.146 17.2204" stroke="#B8B9C1" stroke-width="1.42793" stroke-linecap="round" stroke-linejoin="round"/>
</svg>
