<svg width="25" height="25" viewBox="0 0 25 25" fill="none" xmlns="http://www.w3.org/2000/svg">
<g clip-path="url(#clip0_158_454)">
<path d="M6.0625 17.038C6.06326 17.0384 6.06505 17.04 6.06836 17.0419C6.07661 17.0465 6.09251 17.0556 6.11426 17.0702C6.15812 17.0996 6.22668 17.1517 6.30859 17.2323C6.45111 17.3725 6.63803 17.6045 6.80664 17.9696L6.87793 18.1337C6.87866 18.1357 6.87908 18.1383 6.87988 18.1405C6.88646 18.1588 6.89587 18.1834 6.9082 18.2128C6.93293 18.2716 6.97029 18.3515 7.02344 18.4432C7.12967 18.6264 7.30124 18.8622 7.56543 19.078C8.0463 19.4706 8.78818 19.7596 9.88574 19.6229C9.88956 20.1411 9.89355 20.5181 9.89355 20.6844C9.89355 20.7204 9.88113 20.7358 9.87988 20.7372C9.8796 20.7374 9.87833 20.7379 9.87598 20.7391C9.87348 20.7404 9.86753 20.7437 9.85742 20.746C9.83848 20.7501 9.80095 20.752 9.73828 20.7421C6.32602 19.612 3.875 16.4447 3.875 12.7186C3.87514 8.04794 7.72855 4.24988 12.5 4.24988C17.2693 4.24988 21.1249 8.048 21.125 12.7186C21.125 16.4394 18.6753 19.6092 15.2373 20.7313C15.1697 20.7428 15.1297 20.7404 15.1104 20.7362C15.0929 20.7324 15.0893 20.7282 15.0908 20.7294C15.0887 20.7263 15.0791 20.7113 15.0791 20.6786C15.0791 20.5366 15.0821 20.2301 15.085 19.8065C15.0878 19.3845 15.0908 18.8496 15.0908 18.2567C15.0908 17.7088 14.9721 17.2541 14.7891 16.9012C15.6197 16.7565 16.4655 16.4844 17.1504 15.9208C18.0326 15.1947 18.5889 14.0404 18.5889 12.2577C18.5889 11.279 18.2603 10.458 17.7139 9.79968C17.8409 9.36565 17.9833 8.49658 17.5498 7.40515L17.4844 7.24011L17.3145 7.1864L17.2383 7.42761C17.3048 7.21578 17.3127 7.18968 17.3135 7.1864L17.3125 7.18542H17.3115C17.3105 7.18511 17.3088 7.18479 17.3076 7.18445C17.3055 7.18382 17.3032 7.18318 17.3008 7.1825C17.2955 7.18101 17.2891 7.1793 17.2822 7.17761C17.2684 7.17423 17.2515 7.17042 17.2314 7.16687C17.1914 7.15977 17.1391 7.15318 17.0742 7.15027C16.9441 7.14446 16.765 7.15324 16.5352 7.20105C16.1004 7.29154 15.4863 7.52115 14.6719 8.04675C14.0617 7.8937 13.426 7.8063 12.7881 7.78308L12.4902 7.77722H12.4854C11.7479 7.78159 11.0081 7.86969 10.3027 8.04675C9.48339 7.52129 8.86751 7.29152 8.43164 7.20105C8.201 7.15321 8.021 7.14446 7.89062 7.15027C7.82573 7.15318 7.77344 7.15978 7.7334 7.16687C7.71336 7.17042 7.69642 7.17423 7.68262 7.17761C7.67574 7.1793 7.6694 7.181 7.66406 7.1825C7.66162 7.18318 7.65934 7.18382 7.65723 7.18445C7.65608 7.18479 7.65436 7.18511 7.65332 7.18542H7.65234L7.65137 7.1864C7.65225 7.19031 7.66255 7.22533 7.7627 7.54382L7.65039 7.1864L7.48047 7.24011L7.41406 7.40515C6.98309 8.49027 7.12017 9.35868 7.25684 9.80261C6.70929 10.4605 6.38281 11.2813 6.38281 12.2577C6.38283 14.0362 6.9391 15.1914 7.81934 15.9198C8.503 16.4854 9.34724 16.7611 10.1768 16.9081C10.0824 17.0911 10.0072 17.3012 9.95605 17.537C9.72811 17.617 9.42736 17.6881 9.11816 17.661C8.74387 17.6281 8.32787 17.4529 7.99121 16.8885C7.99076 16.8878 7.99079 16.8866 7.99023 16.8856C7.98851 16.8826 7.9861 16.8785 7.9834 16.8739C7.978 16.8648 7.97024 16.8525 7.96094 16.8378C7.94229 16.8082 7.91536 16.768 7.88086 16.7206C7.81197 16.6259 7.70994 16.499 7.57422 16.37C7.30491 16.1142 6.88196 15.8287 6.31348 15.7899L6.30273 15.7889H6.29297L6.28809 16.1366C6.29213 15.8208 6.29206 15.7916 6.29199 15.7889H6.27539C6.26637 15.789 6.25384 15.7894 6.23926 15.7899C6.21007 15.7909 6.1691 15.7928 6.12305 15.7977C6.04574 15.8061 5.89656 15.8272 5.76758 15.8993C5.69955 15.9373 5.60087 16.0093 5.54395 16.1366C5.48131 16.277 5.498 16.4194 5.5459 16.5321C5.58956 16.6348 5.66037 16.7203 5.73242 16.7899C5.80741 16.8623 5.90255 16.9356 6.01562 17.0116L6.04004 17.0282L6.0625 17.038Z" fill="white" stroke="#FFF4ED" stroke-width="0.75"/>
</g>
<defs>
<clipPath id="clip0_158_454">
<rect width="18" height="18" fill="white" transform="translate(3.5 3.5)"/>
</clipPath>
</defs>
</svg>
