<svg width="25" height="25" viewBox="0 0 25 25" fill="none" xmlns="http://www.w3.org/2000/svg">
<path d="M4.5 13H8.66667M4.5 13C4.5 17.1421 7.85786 20.5 12 20.5M4.5 13C4.5 8.85786 7.85786 5.5 12 5.5M8.66667 13H15.3333M8.66667 13C8.66667 17.1421 10.1591 20.5 12 20.5M8.66667 13C8.66667 8.85786 10.1591 5.5 12 5.5M15.3333 13H19.5M15.3333 13C15.3333 8.85786 13.8409 5.5 12 5.5M15.3333 13C15.3333 17.1421 13.8409 20.5 12 20.5M19.5 13C19.5 8.85786 16.1421 5.5 12 5.5M19.5 13C19.5 17.1421 16.1421 20.5 12 20.5" stroke="#B8B9C1" stroke-width="1.4" stroke-linecap="round" stroke-linejoin="round"/>
</svg>
