<svg width="17" height="18" viewBox="0 0 17 18" fill="none" xmlns="http://www.w3.org/2000/svg">
<path d="M4.80434 6.95824H7.49905V17.1263H4.80434V6.95824ZM9.43924 9.11401H12.134V17.1263H9.43924V9.11401ZM14.0741 5.30548H16.7689V17.1263H14.0741V5.30548ZM0.169434 10.8027H2.86415V17.1263H0.169434V10.8027Z" fill="#D9D9DE"/>
<path d="M15.3286 0.311432C14.5751 0.311432 13.9643 0.921838 13.9643 1.67481C13.9643 1.85105 13.9981 2.0193 14.059 2.17391L11.4296 4.41386C11.2303 4.30605 11.0073 4.24975 10.7808 4.25009C10.3909 4.25009 10.0394 4.41383 9.79076 4.67593L7.52088 3.74629C7.52106 3.73749 7.52156 3.72876 7.52156 3.71988C7.52156 2.96691 6.91072 2.3565 6.15721 2.3565C5.40369 2.3565 4.79289 2.96691 4.79289 3.71988C4.79289 3.79609 4.79943 3.87072 4.81147 3.94351L2.45324 5.33782C2.21296 5.14806 1.91564 5.04501 1.60947 5.04539C0.855954 5.04539 0.245117 5.6558 0.245117 6.40877C0.245117 7.16175 0.855954 7.77216 1.60947 7.77216C2.36298 7.77216 2.97378 7.16175 2.97378 6.40877C2.97372 6.33385 2.96751 6.25906 2.95521 6.18515L5.31344 4.79083C5.55372 4.9806 5.85106 5.08365 6.15724 5.08326C6.54719 5.08326 6.89865 4.91953 7.14728 4.65743L9.41716 5.58707C9.41698 5.59587 9.41648 5.6046 9.41648 5.61344C9.41648 6.36641 10.0273 6.97682 10.7808 6.97682C11.5343 6.97682 12.1451 6.36641 12.1451 5.61344C12.1451 5.45567 12.118 5.3043 12.0687 5.16335L14.7271 2.89864C14.9143 2.99068 15.1201 3.03843 15.3286 3.03819C16.0821 3.03819 16.693 2.42779 16.693 1.67481C16.693 0.921838 16.0821 0.311432 15.3286 0.311432Z" fill="#D9D9DE"/>
</svg>
