<svg width="121" height="132" viewBox="0 0 121 132" fill="none" xmlns="http://www.w3.org/2000/svg">
<path fill-rule="evenodd" clip-rule="evenodd" d="M78.7442 66.3574L55.21 89.8895C55.21 89.8895 63.5791 87.2758 75.6069 91.4581C77.6304 92.1615 81.0162 88.7757 80.3129 86.7522C76.1306 74.7243 78.7442 66.3574 78.7442 66.3574Z" fill="#1D4CB0"/>
<path fill-rule="evenodd" clip-rule="evenodd" d="M15.7608 26.9053C30.0495 12.6188 53.2466 12.6188 67.5353 26.9053C81.8219 41.1941 81.8219 64.3911 67.5353 78.6799C53.2466 92.9664 30.0495 92.9664 15.7608 78.6799C1.47427 64.3911 1.47427 41.1941 15.7608 26.9053Z" fill="#2A2A33"/>
<path fill-rule="evenodd" clip-rule="evenodd" d="M62.802 22.9072C64.4884 24.1055 66.0714 25.4429 67.5346 26.9054C81.8211 41.1942 81.8211 64.3912 67.5346 78.6799C53.2459 92.9665 30.0488 92.9665 15.7601 78.6799C14.9192 77.8368 14.1271 76.9649 13.3838 76.0663C27.2332 80.5659 43.0618 77.3176 54.0579 66.3215C65.7862 54.5932 68.7017 37.3668 62.802 22.9072Z" fill="#5D5E6C"/>
<path fill-rule="evenodd" clip-rule="evenodd" d="M12.6229 23.7679C28.6423 7.74857 54.6527 7.74857 70.6721 23.7679C86.6915 39.7873 86.6915 65.7977 70.6721 81.8171C54.6527 97.8365 28.6423 97.8365 12.6229 81.8171C-3.39644 65.7977 -3.39644 39.7873 12.6229 23.7679ZM17.3289 28.4739C30.7501 15.0527 52.5449 15.0527 65.9661 28.4739C79.3873 41.8951 79.3873 63.6899 65.9661 77.1111C52.5449 90.5323 30.7501 90.5323 17.3289 77.1111C3.90768 63.6899 3.90768 41.8951 17.3289 28.4739Z" fill="#91939F"/>
<path fill-rule="evenodd" clip-rule="evenodd" d="M4.87294 71.0458C-2.74181 55.6943 -0.159185 36.5509 12.623 23.7687C24.6265 11.7652 42.2389 8.75662 57.0579 14.7428C57.2489 17.182 57.2704 19.6314 57.1223 22.0736C44.2291 15.5815 28.0899 17.7159 17.329 28.4747C5.92241 39.8812 4.20953 57.3361 12.1948 70.5599C9.85625 70.8794 7.46888 71.0458 5.046 71.0458H4.87294Z" fill="#5D5E6C"/>
<path fill-rule="evenodd" clip-rule="evenodd" d="M73.8101 99.0753C71.9377 97.2028 70.8857 94.6632 70.8857 92.0152C70.8857 89.3672 71.9377 86.8276 73.8101 84.9551C75.6826 83.0827 78.2221 82.0308 80.8702 82.0308C83.5182 82.0308 86.0578 83.0827 87.9302 84.9551L120.093 117.118C120.959 117.983 118.498 121.851 114.602 125.747C110.706 129.643 106.838 132.104 105.973 131.238L73.8101 99.0753Z" fill="#91939F"/>
<path fill-rule="evenodd" clip-rule="evenodd" d="M73.8101 99.0753C71.9377 97.2028 70.8857 94.6632 70.8857 92.0152C70.8857 89.3672 71.9377 86.8276 73.8101 84.9551C75.6826 83.0827 78.2221 82.0308 80.8702 82.0308C83.5182 82.0308 86.0578 83.0827 87.9302 84.9551L117.04 114.065C117.906 114.93 115.445 118.798 111.549 122.694C107.653 126.59 103.785 129.051 102.92 128.185L73.8101 99.0753Z" fill="#5D5E6C"/>
<path fill-rule="evenodd" clip-rule="evenodd" d="M36.946 45.8076C36.895 43.6931 37.6893 42.1489 38.914 41.2436C40.8399 39.8236 43.7176 39.8835 45.2796 41.643C45.9497 42.3996 46.338 43.469 46.3491 44.8225C46.3757 48.0685 44.8536 49.9655 43.3626 51.9291C41.3569 54.5761 39.3534 57.2963 39.1049 61.8381C39.0728 62.4259 39.2756 63.0025 39.6686 63.4408C40.0616 63.8792 40.6126 64.1435 41.2005 64.1755C41.7883 64.2076 42.3649 64.0048 42.8032 63.6118C43.2416 63.2188 43.5059 62.6678 43.5379 62.0799C43.7243 58.6298 45.375 56.6196 46.8993 54.6094C48.9406 51.918 50.8243 49.2334 50.7866 44.787C50.7644 42.1733 49.8924 40.1565 48.5967 38.6965C45.5703 35.2885 40.0123 34.9202 36.2804 37.6715C34.0439 39.3222 32.4175 42.0557 32.5085 45.9119C32.5223 46.5003 32.7694 47.0592 33.1952 47.4655C33.6211 47.8718 34.191 48.0923 34.7794 48.0785C35.3679 48.0647 35.9267 47.8177 36.333 47.3918C36.7393 46.9659 36.9598 46.3961 36.946 45.8076Z" fill="#1D4CB0"/>
<path d="M41.1148 72.4152C42.622 72.4152 43.8439 71.1933 43.8439 69.6861C43.8439 68.1789 42.622 66.957 41.1148 66.957C39.6076 66.957 38.3857 68.1789 38.3857 69.6861C38.3857 71.1933 39.6076 72.4152 41.1148 72.4152Z" fill="#1D4CB0"/>
<path fill-rule="evenodd" clip-rule="evenodd" d="M81.0432 14.8828L87.6995 3.78903C87.8494 3.53918 87.9486 3.26225 87.9915 2.97405C88.0344 2.68585 88.0201 2.39202 87.9494 2.10935C87.8787 1.82668 87.7531 1.56069 87.5796 1.32658C87.4062 1.09246 87.1883 0.894811 86.9384 0.744901C86.6886 0.594991 86.4117 0.495761 86.1235 0.452875C85.8353 0.40999 85.5414 0.42429 85.2588 0.494958C84.9761 0.565626 84.7101 0.691279 84.476 0.864742C84.2419 1.03821 84.0442 1.25608 83.8943 1.50593L77.2381 12.5997C76.9353 13.1043 76.8454 13.7085 76.9881 14.2794C77.1308 14.8502 77.4945 15.3411 77.9991 15.6438C78.5037 15.9466 79.1079 16.0365 79.6788 15.8938C80.2497 15.751 80.7405 15.3874 81.0432 14.8828ZM91.5401 22.1936L115.946 4.44356C116.422 4.09755 116.742 3.5766 116.833 2.99531C116.925 2.41403 116.783 1.82002 116.437 1.34396C116.265 1.10824 116.049 0.90858 115.801 0.756368C115.552 0.604155 115.276 0.502377 114.988 0.456845C114.407 0.364887 113.813 0.507612 113.337 0.85362L88.9309 18.6036C88.4548 18.9496 88.1357 19.4706 88.0438 20.0519C87.9518 20.6332 88.0945 21.2272 88.4405 21.7032C88.7866 22.1793 89.3075 22.4984 89.8888 22.5903C90.4701 22.6823 91.0641 22.5396 91.5401 22.1936ZM95.2099 35.8633L112.96 31.4258C113.247 31.3592 113.518 31.2362 113.757 31.0639C113.996 30.8916 114.198 30.6735 114.351 30.4222C114.505 30.1709 114.607 29.8915 114.652 29.6003C114.697 29.3092 114.683 29.012 114.611 28.7262C114.54 28.4405 114.412 28.1718 114.236 27.9359C114.059 27.6999 113.838 27.5015 113.584 27.3521C113.33 27.2027 113.049 27.1054 112.757 27.0658C112.465 27.0262 112.168 27.0451 111.884 27.1214L94.1339 31.5589C93.5719 31.7097 93.0916 32.0752 92.7965 32.5767C92.5014 33.0782 92.4152 33.6755 92.5563 34.24C92.6974 34.8045 93.0546 35.291 93.551 35.5946C94.0473 35.8982 94.6431 35.9947 95.2099 35.8633Z" fill="#1D4CB0"/>
</svg>
