<svg width="16" height="17" viewBox="0 0 16 17" fill="none" xmlns="http://www.w3.org/2000/svg">
<path d="M6.20538 0.830048H1.31163C0.681258 0.830048 0.169434 1.34187 0.169434 1.97225V4.9085C0.169434 5.5379 0.681258 6.0507 1.31163 6.0507H6.20538C6.83478 6.0507 7.34758 5.53887 7.34758 4.9085V1.97225C7.34661 1.34187 6.83472 0.830048 6.20538 0.830048Z" fill="white"/>
<path d="M6.20538 7.35529H1.31163C0.681258 7.35529 0.169434 7.86711 0.169434 8.49651V15.3478C0.169434 15.9781 0.681258 16.49 1.31163 16.49H6.20538C6.83478 16.49 7.34758 15.9781 7.34758 15.3478V8.49651C7.34661 7.86711 6.83478 7.35529 6.20538 7.35529Z" fill="#FFF4ED"/>
<path d="M14.6873 11.2703H9.79357C9.16417 11.2703 8.65137 11.7821 8.65137 12.4125V15.3488C8.65137 15.9782 9.16319 16.491 9.79357 16.491H14.6873C15.3177 16.49 15.8295 15.9782 15.8295 15.3478V12.4115C15.8295 11.7821 15.3177 11.2703 14.6873 11.2703Z" fill="white"/>
<path d="M14.6873 0.830017H9.79357C9.16417 0.830017 8.65137 1.34184 8.65137 1.97222V8.82347C8.65137 9.45286 9.16319 9.96567 9.79357 9.96567H14.6873C15.3168 9.96567 15.8295 9.45384 15.8295 8.82347V1.97222C15.8295 1.34184 15.3177 0.830017 14.6873 0.830017Z" fill="#FFF4ED"/>
</svg>
