<svg width="25" height="24" viewBox="0 0 25 24" fill="none" xmlns="http://www.w3.org/2000/svg">
<path fill-rule="evenodd" clip-rule="evenodd" d="M13 5C8.85793 5 5.50011 8.35782 5.50011 12.4999V14.7379C5.49996 14.7465 5.49996 14.7551 5.50011 14.7636V16.5587C5.50011 17.6307 6.36919 18.4998 7.44126 18.4998C8.51333 18.4998 9.38241 17.6307 9.38241 16.5587V14.9379C9.38241 13.4816 8.09629 12.807 7.00009 13.0307V12.4999C7.00009 9.18623 9.68634 6.49998 13 6.49998C16.3137 6.49998 18.9999 9.18623 18.9999 12.4999V13.0228C17.904 12.7988 16.6176 13.4713 16.6176 14.929V16.5587C16.6176 16.916 16.7142 17.2508 16.8826 17.5384C16.2188 17.8684 15.3129 18.1248 14.125 18.1248C13.7108 18.1248 13.375 18.4606 13.375 18.8748C13.375 19.289 13.7108 19.6248 14.125 19.6248C15.9579 19.6248 17.3166 19.1078 18.2472 18.4749C18.3487 18.4913 18.4527 18.4998 18.5587 18.4998C19.6308 18.4998 20.4999 17.6307 20.4999 16.5587V14.7632C20.5 14.755 20.5 14.7467 20.4999 14.7384V12.4999C20.4999 8.35782 17.1421 5 13 5ZM18.4389 16.9834C18.477 16.9941 18.5172 16.9998 18.5587 16.9998C18.8024 16.9998 18.9999 16.8023 18.9999 16.5587V14.816C18.9691 14.6745 18.9053 14.6027 18.8471 14.561C18.7713 14.5066 18.6593 14.4728 18.5319 14.4824C18.4044 14.492 18.2988 14.5421 18.232 14.6072C18.1754 14.6624 18.1176 14.7546 18.1176 14.929V16.5587C18.1176 16.7231 18.2075 16.8665 18.3409 16.9424C18.3744 16.9537 18.4071 16.9673 18.4389 16.9834ZM7.00009 16.5587V14.8194C7.03202 14.6801 7.09568 14.6092 7.154 14.5679C7.23017 14.5138 7.3421 14.4806 7.46913 14.4907C7.59617 14.5007 7.70151 14.551 7.76825 14.6163C7.82495 14.6718 7.88243 14.7642 7.88243 14.9379V16.5587C7.88243 16.8023 7.68491 16.9998 7.44126 16.9998C7.19761 16.9998 7.00009 16.8023 7.00009 16.5587Z" fill="#91939F"/>
</svg>
