<svg width="18" height="18" viewBox="0 0 18 18" fill="none" xmlns="http://www.w3.org/2000/svg">
<path d="M16.4535 8.00877L15.7114 7.63789C15.7114 3.93077 12.7063 0.926331 9 0.926331C5.29328 0.926331 2.28844 3.93077 2.28844 7.63789L1.54669 8.00877C1.21649 8.17387 0.946289 8.61119 0.946289 8.98005V10.3224C0.946289 10.6913 1.21649 11.1286 1.54669 11.2937L2.28844 11.6645H3.29515V7.63789C3.29515 4.49191 5.85442 1.93304 9 1.93304C12.1454 1.93304 14.7046 4.49191 14.7046 7.63789V13.0069C14.7046 14.6748 13.3526 16.027 11.6845 16.027H9.67108V15.0203H8.32873V17.0338H11.6845C13.9083 17.0338 15.7114 15.2307 15.7114 13.0069V11.6645L16.4535 11.2937C16.7837 11.1286 17.0537 10.6913 17.0537 10.3224V8.98005C17.0537 8.61119 16.7837 8.17387 16.4535 8.00877Z" fill="#D9D9DE"/>
<path d="M11.6844 5.96018H9.50325V4.53386C9.89909 4.39896 10.1743 4.11306 10.1743 3.77883C10.1743 3.31554 9.64882 2.94003 8.99989 2.94003C8.35096 2.94003 7.82526 3.31554 7.82526 3.77883C7.82526 4.11306 8.10049 4.39977 8.49653 4.53386V5.96018H6.31519C5.20377 5.96018 4.30176 6.86199 4.30176 7.9736V10.6581C4.30176 12.5103 5.80559 14.0139 7.65774 14.0139H10.3422C12.1944 14.0139 13.6978 12.5103 13.6978 10.6581V7.9736C13.6978 6.86199 12.796 5.96018 11.6844 5.96018ZM6.65103 9.31596V8.64488C6.65103 8.55675 6.66838 8.46949 6.70211 8.38807C6.73583 8.30665 6.78526 8.23268 6.84758 8.17036C6.90989 8.10804 6.98387 8.05861 7.06529 8.02489C7.14671 7.99116 7.23397 7.97381 7.3221 7.97381C7.41023 7.97381 7.49749 7.99116 7.57891 8.02489C7.66033 8.05861 7.73431 8.10804 7.79662 8.17036C7.85894 8.23268 7.90837 8.30665 7.94209 8.38807C7.97582 8.46949 7.99318 8.55675 7.99318 8.64488V9.31596C7.99323 9.40412 7.9759 9.49142 7.94218 9.57288C7.90846 9.65433 7.85902 9.72834 7.79667 9.79067C7.73432 9.853 7.6603 9.90242 7.57883 9.93612C7.49737 9.96981 7.41006 9.98711 7.3219 9.98703C7.23377 9.98709 7.14649 9.96976 7.06506 9.93605C6.98363 9.90235 6.90964 9.85291 6.84733 9.79059C6.78502 9.72826 6.73561 9.65426 6.70193 9.57281C6.66824 9.49137 6.65095 9.40409 6.65103 9.31596ZM10.6777 12.0005L9.33553 12.3361H8.66445L7.3219 12.0005V11.3294H10.6777V12.0005ZM11.349 9.31596C11.349 9.40412 11.3317 9.49142 11.298 9.57288C11.2642 9.65433 11.2148 9.72834 11.1525 9.79067C11.0901 9.853 11.0161 9.90242 10.9346 9.93612C10.8531 9.96981 10.7658 9.98711 10.6777 9.98703C10.5895 9.98711 10.5022 9.96981 10.4208 9.93611C10.3393 9.90242 10.2653 9.85299 10.203 9.79066C10.1407 9.72833 10.0912 9.65432 10.0575 9.57286C10.0238 9.49141 10.0065 9.40411 10.0066 9.31596V8.64488C10.0066 8.46687 10.0773 8.29616 10.2032 8.17029C10.3291 8.04442 10.4998 7.97371 10.6778 7.97371C10.8558 7.97371 11.0265 8.04442 11.1524 8.17029C11.2782 8.29616 11.349 8.46687 11.349 8.64488V9.31596Z" fill="#D9D9DE"/>
</svg>
