<svg width="22" height="24" viewBox="0 0 22 24" fill="none" xmlns="http://www.w3.org/2000/svg">
<path fill-rule="evenodd" clip-rule="evenodd" d="M11.5 5C7.35793 5 4.00011 8.35782 4.00011 12.4999V14.7379C3.99996 14.7465 3.99996 14.7551 4.00011 14.7636V16.5587C4.00011 17.6307 4.86919 18.4998 5.94126 18.4998C7.01333 18.4998 7.88241 17.6307 7.88241 16.5587V14.9379C7.88241 13.4816 6.59629 12.807 5.50009 13.0307V12.4999C5.50009 9.18623 8.18634 6.49998 11.5 6.49998C14.8137 6.49998 17.4999 9.18623 17.4999 12.4999V13.0228C16.404 12.7988 15.1176 13.4713 15.1176 14.929V16.5587C15.1176 16.916 15.2142 17.2508 15.3826 17.5384C14.7188 17.8684 13.8129 18.1248 12.625 18.1248C12.2108 18.1248 11.875 18.4606 11.875 18.8748C11.875 19.289 12.2108 19.6248 12.625 19.6248C14.4579 19.6248 15.8166 19.1078 16.7472 18.4749C16.8487 18.4913 16.9527 18.4998 17.0587 18.4998C18.1308 18.4998 18.9999 17.6307 18.9999 16.5587V14.7632C19 14.755 19 14.7467 18.9999 14.7384V12.4999C18.9999 8.35782 15.6421 5 11.5 5ZM16.9389 16.9834C16.977 16.9941 17.0172 16.9998 17.0587 16.9998C17.3024 16.9998 17.4999 16.8023 17.4999 16.5587V14.816C17.4691 14.6745 17.4053 14.6027 17.3471 14.561C17.2713 14.5066 17.1593 14.4728 17.0319 14.4824C16.9044 14.492 16.7988 14.5421 16.732 14.6072C16.6754 14.6624 16.6176 14.7546 16.6176 14.929V16.5587C16.6176 16.7231 16.7075 16.8665 16.8409 16.9424C16.8744 16.9537 16.9071 16.9673 16.9389 16.9834ZM5.50009 16.5587V14.8194C5.53202 14.6801 5.59568 14.6092 5.654 14.5679C5.73017 14.5138 5.8421 14.4806 5.96913 14.4907C6.09617 14.5007 6.20151 14.551 6.26825 14.6163C6.32495 14.6718 6.38243 14.7642 6.38243 14.9379V16.5587C6.38243 16.8023 6.18491 16.9998 5.94126 16.9998C5.69761 16.9998 5.50009 16.8023 5.50009 16.5587Z" fill="white"/>
</svg>
