<svg width="24" height="24" viewBox="0 0 24 24" fill="none" xmlns="http://www.w3.org/2000/svg">
<mask id="path-1-inside-1_478_1503" fill="white">
<path d="M8.61421 5.69372C9.18741 5.2479 9.93944 5 10.6875 5C11.1232 5 11.4726 5.14897 11.7369 5.38395C11.8399 5.47543 11.9267 5.57698 12 5.68258C12.0733 5.57698 12.1601 5.47543 12.263 5.38395C12.5274 5.14897 12.8768 5 13.3125 5C14.0605 5 14.8126 5.2479 15.3858 5.69372C15.8452 6.05102 16.1992 6.54521 16.3252 7.14252C16.6122 7.16494 16.8744 7.2841 17.0949 7.46291C17.4295 7.73425 17.6723 8.14094 17.8261 8.5716C18.0651 9.24095 18.1306 10.0937 17.8814 10.821C17.9452 10.8505 18.007 10.8851 18.0669 10.925C18.3079 11.0857 18.4904 11.3149 18.6257 11.5856C18.8902 12.1145 19 12.8527 19 13.75C19 14.7486 18.6191 15.4184 18.1363 15.8321C17.8344 16.091 17.4998 16.2433 17.2139 16.3179C17.1265 16.8062 16.8817 17.3716 16.4979 17.8514C15.9979 18.4764 15.2252 19 14.1875 19C13.3642 19 12.7107 18.5447 12.2851 18.0989C12.1789 17.9877 12.0837 17.8738 12 17.7621C11.9164 17.8738 11.8211 17.9877 11.7149 18.0989C11.2894 18.5447 10.6358 19 9.8125 19C8.77486 19 8.0021 18.4764 7.50212 17.8514C7.1183 17.3716 6.87358 16.8062 6.7861 16.3179C6.50022 16.2433 6.16562 16.091 5.86371 15.8321C5.3809 15.4184 5 14.7486 5 13.75C5 12.8527 5.10986 12.1145 5.37432 11.5856C5.50963 11.3149 5.69215 11.0857 5.9331 10.925C5.99294 10.8851 6.05486 10.8505 6.11857 10.821C5.86943 10.0937 5.93488 9.24095 6.17393 8.5716C6.32773 8.14094 6.57047 7.73425 6.90513 7.46291C7.12565 7.2841 7.38777 7.16494 7.67481 7.14252C7.80074 6.54521 8.15483 6.05102 8.61421 5.69372ZM11.5625 7.18805L11.5623 7.17878C11.5621 7.16983 11.5616 7.1552 11.5606 7.13571C11.5585 7.0966 11.5542 7.03865 11.5454 6.96833C11.5275 6.82541 11.4925 6.64265 11.4263 6.46611C11.3594 6.28777 11.2695 6.13911 11.1556 6.03792C11.0508 5.94478 10.9081 5.875 10.6875 5.875C10.1231 5.875 9.56259 6.0646 9.15141 6.38441C8.74497 6.70052 8.5 7.1281 8.5 7.625C8.5 7.76563 8.4324 7.89769 8.31831 7.97992C8.20422 8.06215 8.05756 8.08452 7.92415 8.04005C7.76001 7.98533 7.61252 8.01582 7.4562 8.14256C7.285 8.28137 7.11758 8.53093 6.99795 8.8659C6.75356 9.55019 6.77807 10.3784 7.11403 10.8823C7.16282 10.9555 7.18749 11.0401 7.1875 11.125H7.84375C8.93106 11.125 9.8125 12.0064 9.8125 13.0938V13.3872C10.3223 13.5674 10.6875 14.0535 10.6875 14.625C10.6875 15.3498 10.0999 15.9375 9.375 15.9375C8.65012 15.9375 8.0625 15.3498 8.0625 14.625C8.0625 14.0535 8.42773 13.5674 8.9375 13.3872V13.0938C8.9375 12.4896 8.44781 12 7.84375 12H6.3125C6.25857 12 6.20692 11.9902 6.15922 11.9724L6.15693 11.9769C5.98389 12.323 5.875 12.8973 5.875 13.75C5.875 14.5014 6.15035 14.9254 6.43316 15.1679C6.73687 15.4282 7.07343 15.5 7.1875 15.5C7.42912 15.5 7.625 15.6959 7.625 15.9375C7.625 16.2598 7.79927 16.8222 8.18538 17.3049C8.5604 17.7736 9.10014 18.125 9.8125 18.125C10.3017 18.125 10.7419 17.851 11.082 17.4948C11.2485 17.3204 11.3781 17.1389 11.4638 16.9904C11.5067 16.9159 11.5356 16.8551 11.5523 16.8122C11.5573 16.7996 11.5605 16.7904 11.5625 16.784V9.8125H10.6128C10.4326 10.3223 9.94647 10.6875 9.375 10.6875C8.65012 10.6875 8.0625 10.0999 8.0625 9.375C8.0625 8.65012 8.65012 8.0625 9.375 8.0625C9.94647 8.0625 10.4326 8.42773 10.6128 8.9375H11.5625V7.18805ZM12.4375 15.9375V16.784C12.4395 16.7904 12.4427 16.7996 12.4476 16.8122C12.4644 16.8551 12.4932 16.9159 12.5362 16.9904C12.6219 17.1389 12.7515 17.3204 12.918 17.4948C13.2581 17.851 13.6983 18.125 14.1875 18.125C14.8998 18.125 15.4396 17.7736 15.8146 17.3049C16.2007 16.8222 16.375 16.2598 16.375 15.9375C16.375 15.6959 16.5709 15.5 16.8125 15.5C16.9266 15.5 17.2631 15.4282 17.5668 15.1679C17.8496 14.9254 18.125 14.5014 18.125 13.75C18.125 12.8973 18.0161 12.323 17.8431 11.9769C17.7596 11.8101 17.6687 11.7112 17.5815 11.6531C17.4971 11.5968 17.3922 11.5625 17.25 11.5625C17.0886 11.5625 16.9404 11.4737 16.8643 11.3314C16.7882 11.1892 16.7965 11.0166 16.886 10.8823C17.2219 10.3784 17.2464 9.55019 17.002 8.8659C16.8824 8.53093 16.715 8.28137 16.5438 8.14256C16.3875 8.01582 16.24 7.98533 16.0758 8.04005C15.9424 8.08452 15.7957 8.06215 15.6817 7.97992C15.5676 7.89769 15.5 7.76563 15.5 7.625C15.5 7.1281 15.255 6.70052 14.8486 6.38441C14.4374 6.0646 13.877 5.875 13.3125 5.875C13.0919 5.875 12.9492 5.94478 12.8444 6.03792C12.7305 6.13911 12.6406 6.28777 12.5737 6.46611C12.5075 6.64265 12.4725 6.82541 12.4546 6.96833C12.4458 7.03865 12.4415 7.0966 12.4394 7.13571C12.4384 7.1552 12.4379 7.16983 12.4377 7.17878L12.4375 7.18854V15.0625H13.0938C13.6979 15.0625 14.1875 14.5729 14.1875 13.9688V12.3628C13.6777 12.1826 13.3125 11.6965 13.3125 11.125C13.3125 10.4001 13.9002 9.8125 14.625 9.8125C15.3498 9.8125 15.9375 10.4001 15.9375 11.125C15.9375 11.6965 15.5723 12.1826 15.0625 12.3628V13.9688C15.0625 15.056 14.181 15.9375 13.0938 15.9375H12.4375ZM8.9375 9.375C8.9375 9.61662 9.13338 9.8125 9.375 9.8125C9.61662 9.8125 9.8125 9.61662 9.8125 9.375C9.8125 9.13338 9.61662 8.9375 9.375 8.9375C9.13338 8.9375 8.9375 9.13338 8.9375 9.375ZM14.625 11.5625C14.8666 11.5625 15.0625 11.3666 15.0625 11.125C15.0625 10.8834 14.8666 10.6875 14.625 10.6875C14.3834 10.6875 14.1875 10.8834 14.1875 11.125C14.1875 11.3666 14.3834 11.5625 14.625 11.5625ZM9.375 14.1875C9.13338 14.1875 8.9375 14.3834 8.9375 14.625C8.9375 14.8666 9.13338 15.0625 9.375 15.0625C9.61662 15.0625 9.8125 14.8666 9.8125 14.625C9.8125 14.3834 9.61662 14.1875 9.375 14.1875Z"/>
</mask>
<path d="M8.61421 5.69372C9.18741 5.2479 9.93944 5 10.6875 5C11.1232 5 11.4726 5.14897 11.7369 5.38395C11.8399 5.47543 11.9267 5.57698 12 5.68258C12.0733 5.57698 12.1601 5.47543 12.263 5.38395C12.5274 5.14897 12.8768 5 13.3125 5C14.0605 5 14.8126 5.2479 15.3858 5.69372C15.8452 6.05102 16.1992 6.54521 16.3252 7.14252C16.6122 7.16494 16.8744 7.2841 17.0949 7.46291C17.4295 7.73425 17.6723 8.14094 17.8261 8.5716C18.0651 9.24095 18.1306 10.0937 17.8814 10.821C17.9452 10.8505 18.007 10.8851 18.0669 10.925C18.3079 11.0857 18.4904 11.3149 18.6257 11.5856C18.8902 12.1145 19 12.8527 19 13.75C19 14.7486 18.6191 15.4184 18.1363 15.8321C17.8344 16.091 17.4998 16.2433 17.2139 16.3179C17.1265 16.8062 16.8817 17.3716 16.4979 17.8514C15.9979 18.4764 15.2252 19 14.1875 19C13.3642 19 12.7107 18.5447 12.2851 18.0989C12.1789 17.9877 12.0837 17.8738 12 17.7621C11.9164 17.8738 11.8211 17.9877 11.7149 18.0989C11.2894 18.5447 10.6358 19 9.8125 19C8.77486 19 8.0021 18.4764 7.50212 17.8514C7.1183 17.3716 6.87358 16.8062 6.7861 16.3179C6.50022 16.2433 6.16562 16.091 5.86371 15.8321C5.3809 15.4184 5 14.7486 5 13.75C5 12.8527 5.10986 12.1145 5.37432 11.5856C5.50963 11.3149 5.69215 11.0857 5.9331 10.925C5.99294 10.8851 6.05486 10.8505 6.11857 10.821C5.86943 10.0937 5.93488 9.24095 6.17393 8.5716C6.32773 8.14094 6.57047 7.73425 6.90513 7.46291C7.12565 7.2841 7.38777 7.16494 7.67481 7.14252C7.80074 6.54521 8.15483 6.05102 8.61421 5.69372ZM11.5625 7.18805L11.5623 7.17878C11.5621 7.16983 11.5616 7.1552 11.5606 7.13571C11.5585 7.0966 11.5542 7.03865 11.5454 6.96833C11.5275 6.82541 11.4925 6.64265 11.4263 6.46611C11.3594 6.28777 11.2695 6.13911 11.1556 6.03792C11.0508 5.94478 10.9081 5.875 10.6875 5.875C10.1231 5.875 9.56259 6.0646 9.15141 6.38441C8.74497 6.70052 8.5 7.1281 8.5 7.625C8.5 7.76563 8.4324 7.89769 8.31831 7.97992C8.20422 8.06215 8.05756 8.08452 7.92415 8.04005C7.76001 7.98533 7.61252 8.01582 7.4562 8.14256C7.285 8.28137 7.11758 8.53093 6.99795 8.8659C6.75356 9.55019 6.77807 10.3784 7.11403 10.8823C7.16282 10.9555 7.18749 11.0401 7.1875 11.125H7.84375C8.93106 11.125 9.8125 12.0064 9.8125 13.0938V13.3872C10.3223 13.5674 10.6875 14.0535 10.6875 14.625C10.6875 15.3498 10.0999 15.9375 9.375 15.9375C8.65012 15.9375 8.0625 15.3498 8.0625 14.625C8.0625 14.0535 8.42773 13.5674 8.9375 13.3872V13.0938C8.9375 12.4896 8.44781 12 7.84375 12H6.3125C6.25857 12 6.20692 11.9902 6.15922 11.9724L6.15693 11.9769C5.98389 12.323 5.875 12.8973 5.875 13.75C5.875 14.5014 6.15035 14.9254 6.43316 15.1679C6.73687 15.4282 7.07343 15.5 7.1875 15.5C7.42912 15.5 7.625 15.6959 7.625 15.9375C7.625 16.2598 7.79927 16.8222 8.18538 17.3049C8.5604 17.7736 9.10014 18.125 9.8125 18.125C10.3017 18.125 10.7419 17.851 11.082 17.4948C11.2485 17.3204 11.3781 17.1389 11.4638 16.9904C11.5067 16.9159 11.5356 16.8551 11.5523 16.8122C11.5573 16.7996 11.5605 16.7904 11.5625 16.784V9.8125H10.6128C10.4326 10.3223 9.94647 10.6875 9.375 10.6875C8.65012 10.6875 8.0625 10.0999 8.0625 9.375C8.0625 8.65012 8.65012 8.0625 9.375 8.0625C9.94647 8.0625 10.4326 8.42773 10.6128 8.9375H11.5625V7.18805ZM12.4375 15.9375V16.784C12.4395 16.7904 12.4427 16.7996 12.4476 16.8122C12.4644 16.8551 12.4932 16.9159 12.5362 16.9904C12.6219 17.1389 12.7515 17.3204 12.918 17.4948C13.2581 17.851 13.6983 18.125 14.1875 18.125C14.8998 18.125 15.4396 17.7736 15.8146 17.3049C16.2007 16.8222 16.375 16.2598 16.375 15.9375C16.375 15.6959 16.5709 15.5 16.8125 15.5C16.9266 15.5 17.2631 15.4282 17.5668 15.1679C17.8496 14.9254 18.125 14.5014 18.125 13.75C18.125 12.8973 18.0161 12.323 17.8431 11.9769C17.7596 11.8101 17.6687 11.7112 17.5815 11.6531C17.4971 11.5968 17.3922 11.5625 17.25 11.5625C17.0886 11.5625 16.9404 11.4737 16.8643 11.3314C16.7882 11.1892 16.7965 11.0166 16.886 10.8823C17.2219 10.3784 17.2464 9.55019 17.002 8.8659C16.8824 8.53093 16.715 8.28137 16.5438 8.14256C16.3875 8.01582 16.24 7.98533 16.0758 8.04005C15.9424 8.08452 15.7957 8.06215 15.6817 7.97992C15.5676 7.89769 15.5 7.76563 15.5 7.625C15.5 7.1281 15.255 6.70052 14.8486 6.38441C14.4374 6.0646 13.877 5.875 13.3125 5.875C13.0919 5.875 12.9492 5.94478 12.8444 6.03792C12.7305 6.13911 12.6406 6.28777 12.5737 6.46611C12.5075 6.64265 12.4725 6.82541 12.4546 6.96833C12.4458 7.03865 12.4415 7.0966 12.4394 7.13571C12.4384 7.1552 12.4379 7.16983 12.4377 7.17878L12.4375 7.18854V15.0625H13.0938C13.6979 15.0625 14.1875 14.5729 14.1875 13.9688V12.3628C13.6777 12.1826 13.3125 11.6965 13.3125 11.125C13.3125 10.4001 13.9002 9.8125 14.625 9.8125C15.3498 9.8125 15.9375 10.4001 15.9375 11.125C15.9375 11.6965 15.5723 12.1826 15.0625 12.3628V13.9688C15.0625 15.056 14.181 15.9375 13.0938 15.9375H12.4375ZM8.9375 9.375C8.9375 9.61662 9.13338 9.8125 9.375 9.8125C9.61662 9.8125 9.8125 9.61662 9.8125 9.375C9.8125 9.13338 9.61662 8.9375 9.375 8.9375C9.13338 8.9375 8.9375 9.13338 8.9375 9.375ZM14.625 11.5625C14.8666 11.5625 15.0625 11.3666 15.0625 11.125C15.0625 10.8834 14.8666 10.6875 14.625 10.6875C14.3834 10.6875 14.1875 10.8834 14.1875 11.125C14.1875 11.3666 14.3834 11.5625 14.625 11.5625ZM9.375 14.1875C9.13338 14.1875 8.9375 14.3834 8.9375 14.625C8.9375 14.8666 9.13338 15.0625 9.375 15.0625C9.61662 15.0625 9.8125 14.8666 9.8125 14.625C9.8125 14.3834 9.61662 14.1875 9.375 14.1875Z" fill="#212121" stroke="#FFF4ED" stroke-width="1.45833" mask="url(#path-1-inside-1_478_1503)"/>
</svg>
