<svg width="22" height="24" viewBox="0 0 22 24" fill="none" xmlns="http://www.w3.org/2000/svg">
<path d="M17.2777 8.8889H15.724C15.3647 8.8889 15.1111 8.52599 15.1111 8.16668C15.1111 6.97006 14.141 6.00002 12.9444 6.00002C11.7478 6.00002 10.7778 6.97006 10.7778 8.16668C10.7778 8.52599 10.5242 8.8889 10.1648 8.8889H8.61111C8.21223 8.8889 7.88888 9.21225 7.88888 9.61112V11.1649C7.88888 11.5242 7.52597 11.7778 7.16666 11.7778C5.97005 11.7778 5 12.7478 5 13.9444C5 15.1411 5.97005 16.1111 7.16666 16.1111C7.52597 16.1111 7.88888 16.3647 7.88888 16.724V18.2778C7.88888 18.6766 8.21223 19 8.61111 19L17.2778 19C17.6766 19 18 18.6766 18 18.2778V16.724C18 16.3647 17.6371 16.1111 17.2778 16.1111C16.0811 16.1111 15.1111 15.1411 15.1111 13.9444C15.1111 12.7478 16.0811 11.7778 17.2778 11.7778C17.6371 11.7778 18 11.5242 18 11.1649L18 9.61112C18 9.21225 17.6766 8.8889 17.2777 8.8889Z" stroke="#F7F7F8" stroke-width="1.44444" stroke-linecap="round" stroke-linejoin="round"/>
</svg>
