<svg width="22" height="24" viewBox="0 0 22 24" fill="none" xmlns="http://www.w3.org/2000/svg">
<path d="M11 14.25L13.25 12M13.25 12L11 9.75M13.25 12H5M8.75 8.43644V8.40015C8.75 7.56007 8.75 7.13972 8.91349 6.81885C9.0573 6.5366 9.2866 6.3073 9.56885 6.16349C9.88972 6 10.3101 6 11.1501 6H14.6001C15.4402 6 15.8597 6 16.1805 6.16349C16.4628 6.3073 16.6929 6.5366 16.8367 6.81885C17 7.1394 17 7.55925 17 8.39768V15.6027C17 16.4411 17 16.8604 16.8367 17.1809C16.6929 17.4632 16.4628 17.6929 16.1805 17.8367C15.86 18 15.4408 18 14.6023 18H11.1477C10.3092 18 9.8894 18 9.56885 17.8367C9.2866 17.6929 9.0573 17.4629 8.91349 17.1807C8.75 16.8598 8.75 16.4401 8.75 15.6V15.5625" stroke="white" stroke-width="1.5" stroke-linecap="round" stroke-linejoin="round"/>
</svg>
