<svg width="32" height="32" viewBox="0 0 32 32" fill="none" xmlns="http://www.w3.org/2000/svg">
<rect x="0.399902" y="0.640137" width="31.2" height="31.2" rx="6" fill="#2A2A33"/>
<path d="M24.8501 21.1103V13.2577C24.8501 13.2577 16.9103 18.7981 16.1381 19.0856C15.379 18.8112 7.3999 13.2577 7.3999 13.2577V21.1103C7.3999 22.2009 7.63112 22.419 8.70867 22.419H23.5413C24.6446 22.419 24.8501 22.2275 24.8501 21.1103ZM24.8374 11.7181C24.8374 10.9237 24.6058 10.6401 23.5413 10.6401H8.70867C7.61367 10.6401 7.3999 10.9804 7.3999 11.7744L7.41299 11.8966C7.41299 11.8966 15.2957 17.3236 16.1381 17.6202C17.028 17.2756 24.8501 11.7744 24.8501 11.7744L24.8374 11.7181Z" fill="#F7F7F8"/>
</svg>
