<svg width="25" height="25" viewBox="0 0 25 25" fill="none" xmlns="http://www.w3.org/2000/svg">
<path d="M6.27778 8.27775L11.0282 11.8651L11.0297 11.8664C11.5572 12.2532 11.8211 12.4467 12.1101 12.5215C12.3656 12.5875 12.6342 12.5875 12.8896 12.5215C13.1789 12.4466 13.4436 12.2526 13.972 11.8651C13.972 11.8651 17.019 9.52681 18.7222 8.27775M5.5 15.9001V9.98901C5.5 9.11782 5.5 8.6819 5.66955 8.34914C5.81868 8.05645 6.05648 7.81865 6.34918 7.66951C6.68193 7.49997 7.11785 7.49997 7.98904 7.49997H17.0113C17.8825 7.49997 18.3174 7.49997 18.6502 7.66951C18.9429 7.81865 19.1815 8.05645 19.3306 8.34914C19.5 8.68157 19.5 9.11696 19.5 9.98646V15.9028C19.5 16.7722 19.5 17.207 19.3306 17.5394C19.1815 17.8321 18.9429 18.0703 18.6502 18.2195C18.3178 18.3889 17.883 18.3889 17.0135 18.3889H7.98649C7.117 18.3889 6.6816 18.3889 6.34918 18.2195C6.05648 18.0703 5.81868 17.8321 5.66955 17.5394C5.5 17.2067 5.5 16.7713 5.5 15.9001Z" stroke="#B8B9C1" stroke-width="1.55556" stroke-linecap="round" stroke-linejoin="round"/>
</svg>
