<svg width="24" height="24" viewBox="0 0 24 24" fill="none" xmlns="http://www.w3.org/2000/svg">
<mask id="path-1-inside-1_478_1420" fill="white">
<path d="M17.8393 4H5.66071C5.22027 4 4.79786 4.17497 4.48641 4.48641C4.17497 4.79786 4 5.22027 4 5.66071V17.8393C4 18.2797 4.17497 18.7021 4.48641 19.0136C4.79786 19.325 5.22027 19.5 5.66071 19.5H17.8393C18.2797 19.5 18.7021 19.325 19.0136 19.0136C19.325 18.7021 19.5 18.2797 19.5 17.8393V5.66071C19.5 5.22027 19.325 4.79786 19.0136 4.48641C18.7021 4.17497 18.2797 4 17.8393 4ZM5.66071 5.10714H17.8393C17.9861 5.10714 18.1269 5.16547 18.2307 5.26928C18.3345 5.3731 18.3929 5.5139 18.3929 5.66071V7.32143H5.10714V5.66071C5.10714 5.5139 5.16547 5.3731 5.26928 5.26928C5.3731 5.16547 5.5139 5.10714 5.66071 5.10714ZM17.8393 18.3929H5.66071C5.5139 18.3929 5.3731 18.3345 5.26928 18.2307C5.16547 18.1269 5.10714 17.9861 5.10714 17.8393V8.42857H18.3929V17.8393C18.3929 17.9861 18.3345 18.1269 18.2307 18.2307C18.1269 18.3345 17.9861 18.3929 17.8393 18.3929Z"/>
</mask>
<path d="M17.8393 4H5.66071C5.22027 4 4.79786 4.17497 4.48641 4.48641C4.17497 4.79786 4 5.22027 4 5.66071V17.8393C4 18.2797 4.17497 18.7021 4.48641 19.0136C4.79786 19.325 5.22027 19.5 5.66071 19.5H17.8393C18.2797 19.5 18.7021 19.325 19.0136 19.0136C19.325 18.7021 19.5 18.2797 19.5 17.8393V5.66071C19.5 5.22027 19.325 4.79786 19.0136 4.48641C18.7021 4.17497 18.2797 4 17.8393 4ZM5.66071 5.10714H17.8393C17.9861 5.10714 18.1269 5.16547 18.2307 5.26928C18.3345 5.3731 18.3929 5.5139 18.3929 5.66071V7.32143H5.10714V5.66071C5.10714 5.5139 5.16547 5.3731 5.26928 5.26928C5.3731 5.16547 5.5139 5.10714 5.66071 5.10714ZM17.8393 18.3929H5.66071C5.5139 18.3929 5.3731 18.3345 5.26928 18.2307C5.16547 18.1269 5.10714 17.9861 5.10714 17.8393V8.42857H18.3929V17.8393C18.3929 17.9861 18.3345 18.1269 18.2307 18.2307C18.1269 18.3345 17.9861 18.3929 17.8393 18.3929Z" fill="#B8B9C1"/>
<path d="M5.66071 4V-7.80952V4ZM4 5.66071H-7.80952H4ZM4 17.8393H-7.80952H4ZM5.66071 19.5V31.3095V19.5ZM17.8393 19.5V31.3095V19.5ZM19.5 17.8393H31.3095H19.5ZM19.5 5.66071H31.3095H19.5ZM5.66071 5.10714V16.9167V5.10714ZM18.3929 7.32143V19.131H30.2024V7.32143H18.3929ZM5.10714 7.32143H-6.70238V19.131H5.10714V7.32143ZM5.10714 8.42857V-3.38095H-6.70238V8.42857H5.10714ZM18.3929 8.42857H30.2024V-3.38095H18.3929V8.42857ZM17.8393 4V-7.80952H5.66071V4V15.8095H17.8393V4ZM5.66071 4V-7.80952C2.08818 -7.80952 -1.33802 -6.39034 -3.86418 -3.86418L4.48641 4.48641L12.837 12.837C10.9337 14.7403 8.35235 15.8095 5.66071 15.8095L5.66071 4ZM4.48641 4.48641L-3.86418 -3.86418C-6.39034 -1.33802 -7.80952 2.08818 -7.80952 5.66071H4L15.8095 5.66071C15.8095 8.35235 14.7403 10.9337 12.837 12.837L4.48641 4.48641ZM4 5.66071H-7.80952V17.8393H4H15.8095V5.66071H4ZM4 17.8393H-7.80952C-7.80952 21.4118 -6.39034 24.838 -3.86418 27.3642L4.48641 19.0136L12.837 10.663C14.7403 12.5663 15.8095 15.1477 15.8095 17.8393H4ZM4.48641 19.0136L-3.86418 27.3642C-1.33802 29.8903 2.08819 31.3095 5.66071 31.3095V19.5L5.66071 7.69048C8.35234 7.69048 10.9337 8.75972 12.837 10.663L4.48641 19.0136ZM5.66071 19.5V31.3095H17.8393V19.5V7.69048H5.66071V19.5ZM17.8393 19.5V31.3095C21.4118 31.3095 24.838 29.8903 27.3642 27.3642L19.0136 19.0136L10.663 10.663C12.5663 8.75972 15.1477 7.69048 17.8393 7.69048V19.5ZM19.0136 19.0136L27.3642 27.3642C29.8903 24.838 31.3095 21.4118 31.3095 17.8393H19.5H7.69048C7.69048 15.1477 8.75972 12.5663 10.663 10.663L19.0136 19.0136ZM19.5 17.8393H31.3095V5.66071H19.5H7.69048V17.8393H19.5ZM19.5 5.66071H31.3095C31.3095 2.08819 29.8903 -1.33802 27.3642 -3.86418L19.0136 4.48641L10.663 12.837C8.75972 10.9337 7.69048 8.35234 7.69048 5.66071L19.5 5.66071ZM19.0136 4.48641L27.3642 -3.86418C24.838 -6.39034 21.4118 -7.80952 17.8393 -7.80952V4V15.8095C15.1477 15.8095 12.5663 14.7403 10.663 12.837L19.0136 4.48641ZM5.66071 5.10714V16.9167H17.8393V5.10714V-6.70238H5.66071V5.10714ZM17.8393 5.10714V16.9167C14.854 16.9167 11.991 15.7308 9.88013 13.6199L18.2307 5.26928L26.5813 -3.08131C24.2628 -5.39985 21.1182 -6.70238 17.8393 -6.70238V5.10714ZM18.2307 5.26928L9.88013 13.6199C7.76921 11.509 6.58333 8.64596 6.58333 5.66071H18.3929H30.2024C30.2024 2.38184 28.8999 -0.762769 26.5813 -3.08131L18.2307 5.26928ZM18.3929 5.66071H6.58333V7.32143H18.3929H30.2024V5.66071H18.3929ZM18.3929 7.32143V-4.4881H5.10714V7.32143V19.131H18.3929V7.32143ZM5.10714 7.32143H16.9167V5.66071H5.10714H-6.70238V7.32143H5.10714ZM5.10714 5.66071H16.9167C16.9167 8.64599 15.7308 11.509 13.6199 13.6199L5.26928 5.26928L-3.08131 -3.08131C-5.39984 -0.76279 -6.70238 2.38181 -6.70238 5.66071H5.10714ZM5.26928 5.26928L13.6199 13.6199C11.509 15.7308 8.64599 16.9167 5.66071 16.9167V5.10714L5.66071 -6.70238C2.38181 -6.70238 -0.76279 -5.39984 -3.08131 -3.08131L5.26928 5.26928ZM17.8393 18.3929V6.58333H5.66071V18.3929V30.2024H17.8393V18.3929ZM5.66071 18.3929V6.58333C8.64596 6.58333 11.509 7.76921 13.6199 9.88013L5.26928 18.2307L-3.08131 26.5813C-0.762769 28.8999 2.38184 30.2024 5.66071 30.2024V18.3929ZM5.26928 18.2307L13.6199 9.88013C15.7308 11.991 16.9167 14.854 16.9167 17.8393H5.10714H-6.70238C-6.70238 21.1182 -5.39985 24.2628 -3.08131 26.5813L5.26928 18.2307ZM5.10714 17.8393H16.9167V8.42857H5.10714H-6.70238V17.8393H5.10714ZM5.10714 8.42857V20.2381H18.3929V8.42857V-3.38095H5.10714V8.42857ZM18.3929 8.42857H6.58333V17.8393H18.3929H30.2024V8.42857H18.3929ZM18.3929 17.8393H6.58333C6.58333 14.8541 7.7692 11.991 9.88013 9.88013L18.2307 18.2307L26.5813 26.5813C28.8999 24.2628 30.2024 21.1181 30.2024 17.8393H18.3929ZM18.2307 18.2307L9.88013 9.88013C11.991 7.7692 14.8541 6.58333 17.8393 6.58333V18.3929V30.2024C21.1181 30.2024 24.2628 28.8999 26.5813 26.5813L18.2307 18.2307Z" fill="#B8B9C1" mask="url(#path-1-inside-1_478_1420)"/>
<path d="M7.71495 10.2498C7.61071 10.1456 7.46933 10.087 7.32192 10.087C7.1745 10.087 7.03312 10.1456 6.92888 10.2498C6.82464 10.3541 6.76608 10.4955 6.76608 10.6429C6.76608 10.7159 6.78046 10.7881 6.80839 10.8556C6.83633 10.923 6.87727 10.9843 6.92888 11.0359L8.47888 12.5804L6.92888 14.1248C6.877 14.1763 6.83581 14.2375 6.80771 14.305C6.77961 14.3724 6.76514 14.4448 6.76514 14.5179C6.76514 14.591 6.77961 14.6633 6.80771 14.7308C6.83581 14.7982 6.877 14.8594 6.92888 14.9109C6.98034 14.9628 7.04157 15.004 7.10903 15.0321C7.17649 15.0602 7.24884 15.0747 7.32192 15.0747C7.395 15.0747 7.46735 15.0602 7.53481 15.0321C7.60227 15.004 7.66349 14.9628 7.71495 14.9109L9.65245 12.9734C9.70434 12.9219 9.74552 12.8607 9.77363 12.7933C9.80173 12.7258 9.8162 12.6535 9.8162 12.5804C9.8162 12.5073 9.80173 12.4349 9.77363 12.3675C9.74552 12.3 9.70434 12.2388 9.65245 12.1873L7.71495 10.2498ZM12.8576 13.9643H10.6433C10.4965 13.9643 10.3557 14.0226 10.2519 14.1264C10.1481 14.2303 10.0898 14.3711 10.0898 14.5179C10.0898 14.6647 10.1481 14.8055 10.2519 14.9093C10.3557 15.0131 10.4965 15.0714 10.6433 15.0714H12.8576C13.0044 15.0714 13.1453 15.0131 13.2491 14.9093C13.3529 14.8055 13.4112 14.6647 13.4112 14.5179C13.4112 14.3711 13.3529 14.2303 13.2491 14.1264C13.1453 14.0226 13.0044 13.9643 12.8576 13.9643Z" fill="#B8B9C1"/>
</svg>
