<svg width="66" height="25" viewBox="0 0 66 25" fill="none" xmlns="http://www.w3.org/2000/svg">
<rect x="8" y="5.50003" width="14" height="14" rx="7" fill="#41D29B"/>
<path d="M11 12.1667L13.6667 14.8334L19 9.50003" stroke="#0E0E11" stroke-width="1.2" stroke-linecap="round"/>
<path d="M38.442 14.56C38.442 16.31 37.042 17.64 34.606 17.64C32.184 17.64 30.714 16.31 30.588 14.308H32.156C32.226 15.582 33.038 16.408 34.578 16.408C35.852 16.408 36.804 15.806 36.804 14.77C36.804 13.93 36.258 13.51 35.096 13.258L33.64 12.978C32.226 12.698 30.938 11.984 30.938 10.276C30.938 8.58203 32.422 7.30803 34.508 7.30803C36.594 7.30803 38.176 8.58203 38.302 10.584H36.734C36.65 9.38003 35.782 8.54003 34.522 8.54003C33.22 8.54003 32.506 9.31003 32.506 10.178C32.506 11.13 33.332 11.466 34.27 11.662L35.754 11.956C37.476 12.306 38.442 13.062 38.442 14.56ZM44.6068 17.5V16.352C44.1448 17.178 43.3188 17.64 42.2268 17.64C40.6868 17.64 39.6788 16.758 39.6788 15.4C39.6788 13.944 40.8408 13.188 43.0528 13.188C43.4868 13.188 43.8368 13.202 44.4388 13.272V12.726C44.4388 11.662 43.8648 11.06 42.8848 11.06C41.8488 11.06 41.2188 11.676 41.1768 12.712H39.8888C39.9588 11.046 41.1488 9.94003 42.8848 9.94003C44.7188 9.94003 45.7828 10.976 45.7828 12.74V17.5H44.6068ZM41.0228 15.358C41.0228 16.128 41.5968 16.632 42.5068 16.632C43.6968 16.632 44.4388 15.89 44.4388 14.756V14.154C43.8928 14.084 43.5008 14.07 43.1368 14.07C41.7228 14.07 41.0228 14.49 41.0228 15.358ZM53.6009 10.08L50.8149 17.5H49.2749L46.4889 10.08H48.0149L50.0729 15.876L52.1589 10.08H53.6009ZM57.4246 17.64C55.2826 17.64 53.8406 16.086 53.8406 13.748C53.8406 11.55 55.3386 9.94003 57.3826 9.94003C59.5946 9.94003 61.0646 11.732 60.8126 14.14H55.2826C55.3946 15.652 56.1506 16.534 57.3966 16.534C58.4466 16.534 59.1746 15.96 59.4126 14.994H60.8126C60.4486 16.646 59.1746 17.64 57.4246 17.64ZM57.3546 11.004C56.2206 11.004 55.4506 11.816 55.2966 13.202H59.3146C59.2446 11.83 58.5026 11.004 57.3546 11.004Z" fill="#41D29B"/>
</svg>
