<svg width="23" height="29" viewBox="0 0 23 29" fill="none" xmlns="http://www.w3.org/2000/svg">
<g clip-path="url(#clip0_337_278)">
<path d="M11.5726 16.4887C12.6709 16.4887 13.5613 15.5983 13.5613 14.5C13.5613 13.4017 12.6709 12.5114 11.5726 12.5114C10.4743 12.5114 9.58398 13.4017 9.58398 14.5C9.58398 15.5983 10.4743 16.4887 11.5726 16.4887Z" stroke="white" stroke-width="1.20189" stroke-linecap="round" stroke-linejoin="round"/>
<path d="M16.4783 16.4887C16.3901 16.6886 16.3638 16.9104 16.4028 17.1254C16.4417 17.3405 16.5443 17.5389 16.6971 17.6951L16.7368 17.7349C16.8601 17.858 16.9579 18.0043 17.0246 18.1652C17.0913 18.3261 17.1257 18.4987 17.1257 18.6729C17.1257 18.8471 17.0913 19.0196 17.0246 19.1806C16.9579 19.3415 16.8601 19.4877 16.7368 19.6109C16.6137 19.7341 16.4675 19.8319 16.3066 19.8986C16.1456 19.9654 15.9731 19.9997 15.7989 19.9997C15.6246 19.9997 15.4521 19.9654 15.2912 19.8986C15.1302 19.8319 14.984 19.7341 14.8609 19.6109L14.8211 19.5711C14.6649 19.4183 14.4665 19.3158 14.2514 19.2768C14.0364 19.2378 13.8146 19.2641 13.6147 19.3523C13.4186 19.4364 13.2514 19.5759 13.1336 19.7537C13.0158 19.9316 12.9526 20.14 12.9518 20.3533V20.466C12.9518 20.8176 12.8121 21.1548 12.5635 21.4034C12.3148 21.6521 11.9776 21.7918 11.626 21.7918C11.2744 21.7918 10.9372 21.6521 10.6885 21.4034C10.4399 21.1548 10.3002 20.8176 10.3002 20.466V20.4063C10.2951 20.1869 10.2241 19.9741 10.0964 19.7956C9.96873 19.6171 9.79031 19.4811 9.58433 19.4054C9.38439 19.3171 9.1626 19.2908 8.94757 19.3298C8.73253 19.3688 8.5341 19.4713 8.37788 19.6241L8.3381 19.6639C8.21497 19.7872 8.06876 19.885 7.90781 19.9517C7.74687 20.0184 7.57435 20.0527 7.40012 20.0527C7.22589 20.0527 7.05338 20.0184 6.89243 19.9517C6.73149 19.885 6.58527 19.7872 6.46214 19.6639C6.33887 19.5408 6.24109 19.3946 6.17437 19.2336C6.10765 19.0727 6.07331 18.9001 6.07331 18.7259C6.07331 18.5517 6.10765 18.3792 6.17437 18.2182C6.24109 18.0573 6.33887 17.9111 6.46214 17.7879L6.50191 17.7482C6.65473 17.5919 6.75725 17.3935 6.79624 17.1785C6.83523 16.9634 6.8089 16.7416 6.72066 16.5417C6.63664 16.3457 6.49711 16.1784 6.31927 16.0607C6.14142 15.9429 5.93302 15.8797 5.71971 15.8788H5.60702C5.2554 15.8788 4.91819 15.7391 4.66956 15.4905C4.42093 15.2419 4.28125 14.9047 4.28125 14.5531C4.28125 14.2014 4.42093 13.8642 4.66956 13.6156C4.91819 13.367 5.2554 13.2273 5.60702 13.2273H5.66668C5.88609 13.2222 6.09888 13.1511 6.27739 13.0235C6.4559 12.8958 6.59188 12.7174 6.66763 12.5114C6.75587 12.3114 6.7822 12.0897 6.74321 11.8746C6.70422 11.6596 6.6017 11.4612 6.44888 11.3049L6.40911 11.2652C6.28584 11.142 6.18806 10.9958 6.12134 10.8349C6.05462 10.6739 6.02028 10.5014 6.02028 10.3272C6.02028 10.1529 6.05462 9.98043 6.12134 9.81948C6.18806 9.65853 6.28584 9.51232 6.40911 9.38919C6.53224 9.26592 6.67845 9.16814 6.8394 9.10142C7.00035 9.0347 7.17286 9.00036 7.34709 9.00036C7.52132 9.00036 7.69384 9.0347 7.85478 9.10142C8.01573 9.16814 8.16194 9.26592 8.28507 9.38919L8.32485 9.42896C8.48107 9.58178 8.6795 9.6843 8.89454 9.72329C9.10957 9.76228 9.33136 9.73595 9.5313 9.64771H9.58433C9.78039 9.56369 9.9476 9.42416 10.0654 9.24631C10.1832 9.06847 10.2464 8.86007 10.2472 8.64676V8.53407C10.2472 8.18245 10.3869 7.84524 10.6355 7.59661C10.8841 7.34798 11.2214 7.2083 11.573 7.2083C11.9246 7.2083 12.2618 7.34798 12.5104 7.59661C12.7591 7.84524 12.8987 8.18245 12.8987 8.53407V8.59373C12.8996 8.80704 12.9628 9.01544 13.0806 9.19328C13.1984 9.37113 13.3656 9.51065 13.5616 9.59468C13.7616 9.68292 13.9834 9.70925 14.1984 9.67026C14.4134 9.63127 14.6119 9.52875 14.7681 9.37593L14.8079 9.33616C14.931 9.21289 15.0772 9.11511 15.2381 9.04839C15.3991 8.98167 15.5716 8.94733 15.7458 8.94733C15.9201 8.94733 16.0926 8.98167 16.2535 9.04839C16.4145 9.11511 16.5607 9.21289 16.6838 9.33616C16.8071 9.45929 16.9049 9.6055 16.9716 9.76645C17.0383 9.9274 17.0726 10.0999 17.0726 10.2741C17.0726 10.4484 17.0383 10.6209 16.9716 10.7818C16.9049 10.9428 16.8071 11.089 16.6838 11.2121L16.644 11.2519C16.4912 11.4081 16.3887 11.6065 16.3497 11.8216C16.3107 12.0366 16.3371 12.2584 16.4253 12.4583V12.5114C16.5093 12.7074 16.6488 12.8746 16.8267 12.9924C17.0045 13.1102 17.2129 13.1734 17.4262 13.1743H17.5389C17.8906 13.1743 18.2278 13.3139 18.4764 13.5626C18.725 13.8112 18.8647 14.1484 18.8647 14.5C18.8647 14.8516 18.725 15.1889 18.4764 15.4375C18.2278 15.6861 17.8906 15.8258 17.5389 15.8258H17.4793C17.266 15.8266 17.0576 15.8899 16.8797 16.0076C16.7019 16.1254 16.5624 16.2926 16.4783 16.4887Z" stroke="white" stroke-width="1.20189" stroke-linecap="round" stroke-linejoin="round"/>
</g>
<defs>
<clipPath id="clip0_337_278">
<rect width="15.9092" height="15.9092" fill="white" transform="translate(3.61816 6.54542)"/>
</clipPath>
</defs>
</svg>
