<svg width="34" height="35" viewBox="0 0 34 35" fill="none" xmlns="http://www.w3.org/2000/svg">
<path fill-rule="evenodd" clip-rule="evenodd" d="M3.1875 16.5166C2.90571 16.5166 2.63546 16.6285 2.4362 16.8278C2.23694 17.0271 2.125 17.2973 2.125 17.5791C2.125 17.8609 2.23694 18.1311 2.4362 18.3304C2.63546 18.5297 2.90571 18.6416 3.1875 18.6416H6.375C6.65679 18.6416 6.92704 18.5297 7.1263 18.3304C7.32556 18.1311 7.4375 17.8609 7.4375 17.5791C7.4375 17.2973 7.32556 17.0271 7.1263 16.8278C6.92704 16.6285 6.65679 16.5166 6.375 16.5166H3.1875ZM3.1875 12.2666C2.90571 12.2666 2.63546 12.3785 2.4362 12.5778C2.23694 12.7771 2.125 13.0473 2.125 13.3291C2.125 13.6109 2.23694 13.8811 2.4362 14.0804C2.63546 14.2797 2.90571 14.3916 3.1875 14.3916H8.5C8.78179 14.3916 9.05204 14.2797 9.2513 14.0804C9.45056 13.8811 9.5625 13.6109 9.5625 13.3291C9.5625 13.0473 9.45056 12.7771 9.2513 12.5778C9.05204 12.3785 8.78179 12.2666 8.5 12.2666H3.1875ZM3.1875 8.0166C2.90571 8.0166 2.63546 8.12854 2.4362 8.3278C2.23694 8.52706 2.125 8.79731 2.125 9.0791C2.125 9.36089 2.23694 9.63115 2.4362 9.8304C2.63546 10.0297 2.90571 10.1416 3.1875 10.1416H11.6875C11.9693 10.1416 12.2395 10.0297 12.4388 9.8304C12.6381 9.63115 12.75 9.36089 12.75 9.0791C12.75 8.79731 12.6381 8.52706 12.4388 8.3278C12.2395 8.12854 11.9693 8.0166 11.6875 8.0166H3.1875ZM18.0625 5.8916C17.7807 5.8916 17.5105 6.00354 17.3112 6.2028C17.1119 6.40206 17 6.67231 17 6.9541C17 7.23589 17.1119 7.50614 17.3112 7.7054C17.5105 7.90466 17.7807 8.0166 18.0625 8.0166H19.125V9.13223C13.7668 9.66879 9.5625 14.2078 9.5625 19.7041C9.5625 25.5595 14.3321 30.3291 20.1875 30.3291C26.0429 30.3291 30.8125 25.5595 30.8125 19.7041C30.8144 17.2535 29.9648 14.8783 28.4091 12.9849L29.2039 12.1922L29.9551 12.9434C30.1543 13.1426 30.4245 13.2545 30.7062 13.2545C30.988 13.2545 31.2582 13.1426 31.4574 12.9434C31.6566 12.7442 31.7685 12.474 31.7685 12.1922C31.7685 11.9105 31.6566 11.6403 31.4574 11.441L30.0071 9.99179C29.9991 9.98208 29.991 9.97252 29.9827 9.9631L28.4506 8.4331C28.2512 8.23422 27.981 8.12263 27.6994 8.12285C27.4176 8.12291 27.1474 8.23489 26.9482 8.43416C26.749 8.63341 26.6371 8.90361 26.6371 9.18535C26.6371 9.46709 26.749 9.73729 26.9482 9.93654L27.6994 10.6877L26.9067 11.4825C25.2942 10.1583 23.3261 9.34061 21.25 9.13223V8.0166H22.3125C22.5943 8.0166 22.8645 7.90466 23.0638 7.7054C23.2631 7.50614 23.375 7.23589 23.375 6.9541C23.375 6.67231 23.2631 6.40206 23.0638 6.2028C22.8645 6.00354 22.5943 5.8916 22.3125 5.8916H18.0625ZM20.1875 13.3291C20.4693 13.3291 20.7395 13.441 20.9388 13.6403C21.1381 13.8396 21.25 14.1098 21.25 14.3916V19.7041C21.2499 19.9859 21.138 20.2561 20.9387 20.4553L17.7512 23.6428C17.5519 23.842 17.2817 23.9539 17 23.9539C16.7183 23.9539 16.4481 23.842 16.2488 23.6428C16.0496 23.4435 15.9377 23.1733 15.9377 22.8916C15.9377 22.6099 16.0496 22.3397 16.2488 22.1404L19.125 19.2642V14.3916C19.125 14.1098 19.2369 13.8396 19.4362 13.6403C19.6355 13.441 19.9057 13.3291 20.1875 13.3291Z" fill="#FF581C"/>
</svg>
