<svg width="24" height="24" viewBox="0 0 24 24" fill="none" xmlns="http://www.w3.org/2000/svg">
<path d="M10.1045 14.8135H14.291C14.314 14.8135 14.3366 14.8185 14.3574 14.8271L14.4141 14.8652C14.4467 14.8979 14.4648 14.9421 14.4648 14.9883C14.4648 15.0344 14.4466 15.0786 14.4141 15.1113C14.3814 15.144 14.3372 15.163 14.291 15.1631H10.1045C10.0815 15.1631 10.059 15.158 10.0381 15.1494L9.98145 15.1113C9.94881 15.0786 9.93066 15.0345 9.93066 14.9883C9.93068 14.9653 9.93476 14.9427 9.94336 14.9219L9.98145 14.8652C10.0141 14.8326 10.0583 14.8135 10.1045 14.8135ZM6.61621 4.34863L6.68262 4.3623L6.73926 4.40039L6.77734 4.45605C6.78611 4.47722 6.79102 4.50053 6.79102 4.52344V10.1045C6.79102 10.1278 6.78614 10.1508 6.77734 10.1719L6.73926 10.2275C6.70655 10.2602 6.66247 10.2793 6.61621 10.2793C6.59317 10.2793 6.5707 10.2743 6.5498 10.2656L6.49316 10.2275C6.46053 10.1948 6.44141 10.1507 6.44141 10.1045V4.52344C6.44141 4.50017 6.4463 4.47712 6.45508 4.45605L6.49316 4.40039C6.50956 4.38399 6.52878 4.37099 6.5498 4.3623L6.61621 4.34863ZM8.70898 5.74414C8.73226 5.74414 8.75529 5.74902 8.77637 5.75781L8.83301 5.79492C8.86571 5.82763 8.88379 5.87269 8.88379 5.91895V8.70898C8.88379 8.75524 8.86572 8.8003 8.83301 8.83301C8.8003 8.86572 8.75524 8.88379 8.70898 8.88379C8.66292 8.88371 8.61856 8.86554 8.58594 8.83301C8.55323 8.8003 8.53516 8.75524 8.53516 8.70898V5.91895C8.53516 5.89576 8.53913 5.87256 8.54785 5.85156L8.58594 5.79492C8.61856 5.76239 8.66292 5.74422 8.70898 5.74414ZM4.52344 6.44141C4.54645 6.44143 4.56898 6.44646 4.58984 6.45508L4.64648 6.49316C4.67914 6.52585 4.69725 6.57 4.69727 6.61621V8.01172C4.69725 8.03472 4.69317 8.05727 4.68457 8.07812L4.64648 8.13477C4.61382 8.16743 4.56963 8.18648 4.52344 8.18652C4.50018 8.18652 4.47712 8.18163 4.45605 8.17285L4.40039 8.13477C4.3677 8.10208 4.34866 8.05794 4.34863 8.01172V6.61621C4.34864 6.59317 4.35367 6.5707 4.3623 6.5498L4.40039 6.49316C4.43309 6.46053 4.47724 6.44141 4.52344 6.44141ZM10.8027 6.44141C10.8257 6.44146 10.8483 6.44644 10.8691 6.45508L10.9258 6.49316C10.9584 6.52584 10.9765 6.57006 10.9766 6.61621V8.01172C10.9765 8.05787 10.9584 8.10209 10.9258 8.13477C10.8932 8.16738 10.8488 8.18642 10.8027 8.18652C10.7795 8.18652 10.7564 8.18158 10.7354 8.17285L10.6787 8.13477C10.6462 8.1021 10.628 8.05783 10.6279 8.01172V6.61621C10.6279 6.59314 10.633 6.57072 10.6416 6.5498L10.6787 6.49316C10.7114 6.46045 10.7565 6.44141 10.8027 6.44141Z" fill="#F7F7F8" stroke="#F7F7F8" stroke-width="0.697674"/>
<path fill-rule="evenodd" clip-rule="evenodd" d="M13.4536 5.39539H12.8955C12.7567 5.39539 12.6236 5.45051 12.5255 5.54864C12.4274 5.64677 12.3723 5.77987 12.3723 5.91864C12.3723 6.05742 12.4274 6.19051 12.5255 6.28864C12.6236 6.38677 12.7567 6.4419 12.8955 6.4419H13.4523C14.4757 6.44748 15.2223 6.4726 15.802 6.57446C16.3685 6.67213 16.7369 6.83748 17.0264 7.09771C17.1311 7.1919 17.2288 7.29515 17.3181 7.40539C17.6055 7.75911 17.7743 8.22794 17.863 8.99608C17.953 9.77329 17.9536 10.7863 17.9536 12.197C17.9536 13.6077 17.953 14.6207 17.863 15.3986C17.7743 16.1661 17.6055 16.6349 17.3188 16.9886C17.2295 17.0985 17.1318 17.2011 17.0264 17.2956C16.6957 17.5928 16.2618 17.7665 15.5432 17.8586C14.8106 17.9528 13.8534 17.9535 12.5118 17.9535H12.1978C10.702 17.9535 9.63597 17.9521 8.82597 17.8377C8.03411 17.7261 7.56528 17.5147 7.21783 17.1484C6.87876 16.7919 6.67574 16.3098 6.56481 15.5172C6.45179 14.7114 6.44272 13.6572 6.44202 12.1977C6.44202 12.0589 6.38689 11.9258 6.28876 11.8277C6.19063 11.7296 6.05754 11.6745 5.91876 11.6745C5.77999 11.6745 5.6469 11.7296 5.54877 11.8277C5.45064 11.9258 5.39551 12.0589 5.39551 12.1977C5.39551 13.6349 5.40318 14.7693 5.52807 15.6624C5.65504 16.5672 5.91179 17.2928 6.45876 17.8691C7.03086 18.4712 7.76132 18.744 8.67946 18.8738C9.57109 19 10.7118 19 12.156 19H12.5488C13.845 19 14.8685 19 15.6757 18.8968C16.506 18.7907 17.1757 18.5689 17.7262 18.0735C17.872 17.9431 18.0074 17.8007 18.1309 17.6479C18.5962 17.0745 18.8034 16.3803 18.9025 15.5186C19.0002 14.6738 19.0002 13.6 19.0002 12.2312V12.1628C19.0002 10.794 19.0002 9.72097 18.9025 8.87539C18.8034 8.01376 18.5955 7.31957 18.1309 6.74608C18.0073 6.59389 17.872 6.45159 17.7262 6.3205C17.2462 5.88794 16.6734 5.66329 15.982 5.5426C15.3032 5.42469 14.4736 5.40097 13.4564 5.39608L13.4536 5.39539Z" fill="#F7F7F8"/>
</svg>
