<svg width="24" height="24" viewBox="0 0 24 24" fill="none" xmlns="http://www.w3.org/2000/svg">
<path d="M19.2555 3L19.3085 3.0027C19.5698 3.02916 19.7737 3.24982 19.7737 3.51816V3.91286C19.7737 4.19903 19.5417 4.43102 19.2555 4.43102C19.012 4.43095 18.8083 4.26282 18.7529 4.03633H17.4052V8.52707H17.6764L17.7294 8.52977C17.9907 8.55626 18.1946 8.77691 18.1946 9.04524C18.1946 9.31356 17.9907 9.53422 17.7294 9.5607L17.6764 9.5634H16.0973C15.8111 9.56337 15.5791 9.33139 15.5791 9.04524C15.5791 8.75908 15.8111 8.5271 16.0973 8.52707H16.3688V4.03633H15.0211C14.9658 4.26289 14.7618 4.43102 14.5182 4.43102C14.232 4.43102 14 4.19903 14 3.91286V3.51816L14.0027 3.4652C14.0292 3.20391 14.2499 3 14.5182 3H19.2555Z" fill="#F7F7F8"/>
<path d="M8.2666 5.11621H13.6338C13.826 5.11646 13.9834 5.27393 13.9834 5.4668C13.9833 5.6596 13.8259 5.81616 13.6338 5.81641H8.2666C6.91424 5.81644 5.81644 6.9135 5.81641 8.2666V11.417H7.28223C7.44442 11.4171 7.60387 11.3797 7.74805 11.3086L7.88672 11.2256C8.01943 11.1324 8.12806 11.0102 8.20508 10.8691L8.27148 10.7227L8.88477 9.01562C8.96823 8.78422 9.11669 8.58266 9.31055 8.43359L9.39648 8.37305C9.60298 8.23963 9.84252 8.16818 10.0869 8.16699L10.1924 8.1709C10.4379 8.18989 10.6719 8.27913 10.8672 8.42676L10.9482 8.49316C11.1317 8.65706 11.2634 8.86988 11.3291 9.10547L11.3535 9.20801L12.4434 14.875C12.4612 14.9677 12.5004 15.0547 12.5586 15.1279L12.623 15.1963C12.6929 15.2599 12.7768 15.3052 12.8672 15.3291L12.959 15.3457C13.0533 15.355 13.1484 15.341 13.2354 15.3057L13.3193 15.2637C13.4003 15.2144 13.4673 15.1459 13.5156 15.0654L13.5576 14.9814L14.3555 12.9834C14.4693 12.6995 14.6549 12.4507 14.8936 12.2617L15 12.1846C15.2533 12.0132 15.5462 11.9116 15.8496 11.8887L15.9805 11.8838H18.1836V10.3662C18.1838 10.1734 18.341 10.0167 18.5332 10.0166C18.7254 10.0166 18.8835 10.1734 18.8838 10.3662V15.7334C18.8838 17.473 17.4726 18.8838 15.7334 18.8838H8.2666L8.11035 18.8799C7.38375 18.8436 6.69178 18.5565 6.15234 18.0684L6.03906 17.9609C5.44881 17.3699 5.11674 16.5687 5.11621 15.7334V8.2666C5.11625 6.58135 6.4406 5.20553 8.10449 5.12109L8.2666 5.11621ZM10.04 8.86914C9.84866 8.88625 9.67842 8.99707 9.58398 9.16406L9.54297 9.25195V9.25293L8.92969 10.96C8.80779 11.2989 8.58374 11.5918 8.28906 11.7988C7.99427 12.0059 7.64249 12.1165 7.28223 12.1162H5.81641V15.7334L5.82812 15.9736C5.84378 16.1332 5.87535 16.2909 5.92188 16.4443L6.00293 16.6709C6.09531 16.8938 6.22041 17.1013 6.37305 17.2871L6.53418 17.4658C6.70465 17.6364 6.89947 17.7802 7.11133 17.8936L7.3291 17.9971C7.55206 18.0894 7.78707 18.1483 8.02637 18.1719L8.2666 18.1836H15.7334C17.0858 18.1836 18.1836 17.0865 18.1836 15.7334V12.583H15.9805C15.6059 12.5831 15.264 12.7838 15.0771 13.1006L15.0068 13.2432L14.2061 15.2412C14.1031 15.4987 13.9194 15.716 13.6826 15.8604C13.4754 15.9867 13.2374 16.0514 12.9961 16.0479L12.8936 16.043C12.6521 16.0199 12.4224 15.9285 12.2314 15.7812L12.1514 15.7148C11.9719 15.5516 11.8438 15.3408 11.7793 15.1084L11.7549 15.0078L10.666 9.33984C10.6479 9.24564 10.6065 9.15792 10.5469 9.08398L10.4814 9.01465C10.3861 8.92953 10.2651 8.87802 10.1377 8.86816L10.04 8.86914Z" fill="#F7F7F8" stroke="#F7F7F8" stroke-width="0.233333"/>
</svg>
