<svg width="24" height="24" viewBox="0 0 24 24" fill="none" xmlns="http://www.w3.org/2000/svg">
<path d="M17.3636 9.53955L13.1276 11.679C12.4248 12.0539 11.5747 12.0539 10.8718 11.679L6.6359 9.53955C5.78869 9.08764 5.78869 7.87251 6.6359 7.42061L10.8719 5.28118C11.5747 4.90627 12.4248 4.90627 13.1276 5.28118L17.3636 7.42061C18.2108 7.87251 18.2108 9.08764 17.3636 9.53955Z" stroke="#B8B9C1" stroke-width="1.19997" stroke-miterlimit="10" stroke-linecap="round" stroke-linejoin="round"/>
<path d="M17.99 11.8051C18.0215 12.0472 17.9784 12.2931 17.8666 12.5101C17.7547 12.7271 17.5793 12.9048 17.3638 13.0195L13.1279 15.2789C12.4251 15.6538 11.575 15.6538 10.8721 15.2789L6.63618 13.0195C6.42075 12.9048 6.2454 12.7271 6.13352 12.5102C6.02165 12.2933 5.97856 12.0474 6.01001 11.8054" stroke="#B8B9C1" stroke-width="1.19997" stroke-miterlimit="10" stroke-linecap="round" stroke-linejoin="round"/>
<path d="M17.99 15.405C18.0215 15.6471 17.9784 15.893 17.8666 16.11C17.7547 16.327 17.5793 16.5047 17.3638 16.6194L13.1279 18.8788C12.4251 19.2537 11.575 19.2537 10.8721 18.8788L6.63618 16.6194C6.42075 16.5047 6.2454 16.3271 6.13352 16.1101C6.02165 15.8932 5.97856 15.6474 6.01001 15.4053" stroke="#B8B9C1" stroke-width="1.19997" stroke-miterlimit="10" stroke-linecap="round" stroke-linejoin="round"/>
</svg>
