<svg width="19" height="20" viewBox="0 0 19 20" fill="none" xmlns="http://www.w3.org/2000/svg">
<path d="M8.02001 13.7552C5.46763 13.9128 1.88153 13.7265 0.0512695 12.9325V16.1184C0.0512695 16.3344 0.170675 16.5348 0.363915 16.6314C1.48506 17.1923 4.87484 17.6743 8.45057 17.3803C7.91642 16.2133 7.79308 14.9328 8.02001 13.7552ZM12.4328 9.09461V7.85591C9.73744 9.02642 2.73683 9.02092 0.0512695 7.85591V11.6026C0.613756 12.2248 4.31005 12.8941 8.37978 12.5723C9.09547 10.8751 10.588 9.55681 12.4328 9.09461Z" fill="#D9D9DE"/>
<path d="M12.4328 6.52592V2.93202C9.75326 4.09584 2.75726 4.10297 0.0512695 2.93202V6.52592C1.35203 7.95681 11.2329 7.85787 12.4328 6.52592ZM12.0939 1.48631C9.97825 0.406497 2.5118 0.392867 0.387981 1.48675C0.250043 1.55784 0.250043 1.75646 0.387833 1.82785C2.51774 2.92927 9.98943 2.89852 12.0939 1.8277C12.2326 1.75702 12.2326 1.55713 12.0939 1.48631ZM13.8855 10.0702C9.92458 10.0702 7.6515 14.6235 10.0229 17.7757C10.0425 16.4942 10.7647 15.3296 11.8863 14.7286C11.6063 14.2863 11.4817 13.765 11.5326 13.2393C11.6454 12.0541 12.6532 11.1039 13.8859 11.1039C15.1893 11.1039 16.2498 12.1645 16.2498 13.4684C16.2503 13.9146 16.1238 14.3517 15.8851 14.7286C16.9768 15.3136 17.7264 16.4577 17.7485 17.7757C18.3661 16.9533 18.7052 15.9501 18.7052 14.8898C18.7052 12.2321 16.5432 10.0702 13.8855 10.0702V10.0702Z" fill="#D9D9DE"/>
<path d="M14.9483 15.5797C14.2819 15.9166 13.4903 15.9176 12.823 15.5797C11.8688 15.8853 11.1768 16.7818 11.1768 17.8357V18.8762C12.3018 19.9739 15.5103 19.9406 16.5947 18.8762V17.8357C16.5947 16.7811 15.9024 15.8857 14.9483 15.5797ZM13.8859 14.6781C14.5526 14.6781 15.0954 14.1349 15.0954 13.4681C15.0954 12.8009 14.5529 12.2583 13.8859 12.2583C13.2208 12.2583 12.676 12.7991 12.676 13.4681C12.676 14.1329 13.2166 14.6781 13.8859 14.6781Z" fill="#D9D9DE"/>
</svg>
