<svg width="35" height="35" viewBox="0 0 35 35" fill="none" xmlns="http://www.w3.org/2000/svg">
<g clip-path="url(#clip0_68_6332)">
<path d="M31.3259 14.4039C29.763 14.4039 28.4639 15.5407 28.2029 17.0307H22.0204C21.9207 16.2058 21.596 15.4241 21.0818 14.7714L25.4258 10.4284C25.9584 10.8053 26.5949 11.0076 27.2473 11.0075C28.9972 11.0075 30.4214 9.58307 30.4214 7.83234C30.4214 6.08162 28.9975 4.65718 27.2473 4.65718C25.4974 4.65718 24.0735 6.08134 24.0735 7.83234C24.0735 8.50987 24.2885 9.13723 24.6515 9.65354L20.3075 13.9968C19.6544 13.4823 18.8724 13.1574 18.047 13.0576V6.8787C19.537 6.61821 20.6741 5.31799 20.6741 3.75399C20.6741 2.00326 19.2499 0.579102 17.5 0.579102C15.7501 0.579102 14.3262 2.00326 14.3262 3.75426C14.3262 5.31826 15.4633 6.61849 16.953 6.87897V13.0576C16.1118 13.1588 15.3159 13.4937 14.6555 14.0245L10.346 9.65683C10.7238 9.12354 10.9266 8.48613 10.9265 7.83262C10.9265 6.08189 9.5026 4.65746 7.75242 4.65746C6.00252 4.65746 4.57863 6.08162 4.57863 7.83262C4.57863 9.58362 6.00252 11.0078 7.75242 11.0078C8.42886 11.0078 9.05539 10.7931 9.57087 10.4309L13.8902 14.8084C13.3922 15.4537 13.0776 16.2215 12.9796 17.0307H6.79713C6.53637 15.5407 5.23669 14.4039 3.67379 14.4039C1.92389 14.4039 0.5 15.8284 0.5 17.5791C0.5 19.3298 1.92389 20.7543 3.67379 20.7543C5.23669 20.7543 6.5361 19.6175 6.79713 18.1275H12.9799C13.0797 18.9522 13.4042 19.7337 13.9179 20.3866L9.57444 24.7298C9.04174 24.3529 8.40523 24.1506 7.75269 24.1507C6.00279 24.1507 4.5789 25.5751 4.5789 27.3259C4.5789 29.0766 6.00279 30.501 7.75269 30.501C9.50287 30.501 10.9268 29.0769 10.9268 27.3259C10.9268 26.6483 10.7115 26.0207 10.3488 25.5047L14.6923 21.1614C15.3454 21.6763 16.1276 22.0013 16.9533 22.1011V28.2798C15.4636 28.5403 14.3265 29.8405 14.3265 31.4045C14.3265 33.1552 15.7504 34.5796 17.5003 34.5796C19.2502 34.5796 20.6743 33.1555 20.6743 31.4045C20.6743 29.8405 19.5373 28.5403 18.0473 28.2798V22.1006C18.8574 22.0026 19.6259 21.6874 20.2715 21.1883L24.6493 25.5074C24.2745 26.0395 24.0735 26.6745 24.0738 27.3253C24.0738 29.076 25.4974 30.5005 27.2476 30.5005C28.9975 30.5005 30.4216 29.0763 30.4216 27.3253C30.4216 25.5743 28.9978 24.1501 27.2476 24.1501C26.5937 24.1501 25.9561 24.3534 25.4228 24.7317L21.0549 20.423C21.5847 19.763 21.9191 18.9678 22.0204 18.1275H28.2031C28.4639 19.6175 29.7633 20.7543 31.3262 20.7543C33.0761 20.7543 34.5 19.3298 34.5 17.5791C34.5 15.8284 33.0761 14.4039 31.3259 14.4039Z" fill="#FF581C"/>
</g>
<defs>
<clipPath id="clip0_68_6332">
<rect width="34" height="34" fill="white" transform="translate(0.5 0.579102)"/>
</clipPath>
</defs>
</svg>
