<svg width="34" height="35" viewBox="0 0 34 35" fill="none" xmlns="http://www.w3.org/2000/svg">
<path fill-rule="evenodd" clip-rule="evenodd" d="M26.536 2.38964C26.4825 2.1549 26.3508 1.94529 26.1626 1.79514C25.9744 1.645 25.7408 1.56323 25.5 1.56323C25.2593 1.56323 25.0256 1.645 24.8374 1.79514C24.6492 1.94529 24.5176 2.1549 24.4641 2.38964L23.876 4.9747C23.7428 5.56058 23.4466 6.09687 23.0218 6.52172C22.5969 6.94658 22.0606 7.24271 21.4747 7.37595L18.8892 7.96405C18.6544 8.01754 18.4448 8.14918 18.2947 8.33739C18.1445 8.5256 18.0627 8.75922 18.0627 8.99998C18.0627 9.24074 18.1445 9.47437 18.2947 9.66258C18.4448 9.85079 18.6544 9.98242 18.8892 10.0359L21.4747 10.624C22.0606 10.7573 22.5969 11.0534 23.0218 11.4782C23.4466 11.9031 23.7428 12.4394 23.876 13.0253L24.4641 15.6103C24.5176 15.8451 24.6492 16.0547 24.8374 16.2048C25.0256 16.355 25.2593 16.4367 25.5 16.4367C25.7408 16.4367 25.9744 16.355 26.1626 16.2048C26.3508 16.0547 26.4825 15.8451 26.536 15.6103L27.1241 13.0253C27.2573 12.4394 27.5534 11.9031 27.9783 11.4782C28.4031 11.0534 28.9394 10.7573 29.5253 10.624L32.1109 10.0359C32.3456 9.98242 32.5553 9.85079 32.7054 9.66258C32.8555 9.47437 32.9373 9.24074 32.9373 8.99998C32.9373 8.75922 32.8555 8.5256 32.7054 8.33739C32.5553 8.14918 32.3456 8.01754 32.1109 7.96405L29.5253 7.37595C28.9394 7.24271 28.4031 6.94658 27.9783 6.52172C27.5534 6.09687 27.2573 5.56058 27.1241 4.9747L26.536 2.38964Z" fill="#FF581C"/>
<path d="M11.6875 9C11.9693 9 12.2395 9.11194 12.4388 9.3112C12.6381 9.51046 12.75 9.78071 12.75 10.0625V32.375C12.75 32.6568 12.6381 32.927 12.4388 33.1263C12.2395 33.3256 11.9693 33.4375 11.6875 33.4375C11.4057 33.4375 11.1355 33.3256 10.9362 33.1263C10.7369 32.927 10.625 32.6568 10.625 32.375V10.0625C10.625 9.78071 10.7369 9.51046 10.9362 9.3112C11.1355 9.11194 11.4057 9 11.6875 9ZM3.1875 12.7188C3.1875 12.437 3.07556 12.1667 2.8763 11.9674C2.67704 11.7682 2.40679 11.6562 2.125 11.6562C1.84321 11.6562 1.57296 11.7682 1.3737 11.9674C1.17444 12.1667 1.0625 12.437 1.0625 12.7188V29.7188C1.0625 30.0005 1.17444 30.2708 1.3737 30.4701C1.57296 30.6693 1.84321 30.7812 2.125 30.7812C2.40679 30.7812 2.67704 30.6693 2.8763 30.4701C3.07556 30.2708 3.1875 30.0005 3.1875 29.7188V12.7188ZM7.96875 14.8438C7.96875 14.562 7.85681 14.2917 7.65755 14.0924C7.45829 13.8932 7.18804 13.7812 6.90625 13.7812C6.62446 13.7812 6.35421 13.8932 6.15495 14.0924C5.95569 14.2917 5.84375 14.562 5.84375 14.8438V27.5938C5.84375 27.8755 5.95569 28.1458 6.15495 28.3451C6.35421 28.5443 6.62446 28.6562 6.90625 28.6562C7.18804 28.6562 7.45829 28.5443 7.65755 28.3451C7.85681 28.1458 7.96875 27.8755 7.96875 27.5938V14.8438ZM17.5312 13.25C17.5312 12.9682 17.4193 12.698 17.2201 12.4987C17.0208 12.2994 16.7505 12.1875 16.4688 12.1875C16.187 12.1875 15.9167 12.2994 15.7174 12.4987C15.5182 12.698 15.4062 12.9682 15.4062 13.25V29.1875C15.4062 29.4693 15.5182 29.7395 15.7174 29.9388C15.9167 30.1381 16.187 30.25 16.4688 30.25C16.7505 30.25 17.0208 30.1381 17.2201 29.9388C17.4193 29.7395 17.5312 29.4693 17.5312 29.1875V13.25ZM21.25 15.9062C21.5318 15.9062 21.802 16.0182 22.0013 16.2174C22.2006 16.4167 22.3125 16.687 22.3125 16.9688V25.4688C22.3125 25.7505 22.2006 26.0208 22.0013 26.2201C21.802 26.4193 21.5318 26.5312 21.25 26.5312C20.9682 26.5312 20.698 26.4193 20.4987 26.2201C20.2994 26.0208 20.1875 25.7505 20.1875 25.4688V16.9688C20.1875 16.687 20.2994 16.4167 20.4987 16.2174C20.698 16.0182 20.9682 15.9062 21.25 15.9062Z" fill="#FF581C"/>
</svg>
