<svg width="34" height="35" viewBox="0 0 34 35" fill="none" xmlns="http://www.w3.org/2000/svg">
<g clip-path="url(#clip0_243_731)">
<path d="M25.5 12.5417V22.4583C25.5 23.0219 25.2761 23.5624 24.8776 23.9609C24.4791 24.3594 23.9386 24.5833 23.375 24.5833C22.8114 24.5833 22.2709 24.3594 21.8724 23.9609C21.4739 23.5624 21.25 23.0219 21.25 22.4583V12.5417C21.25 11.9781 21.4739 11.4376 21.8724 11.0391C22.2709 10.6405 22.8114 10.4167 23.375 10.4167C23.9386 10.4167 24.4791 10.6405 24.8776 11.0391C25.2761 11.4376 25.5 11.9781 25.5 12.5417ZM16.2917 0.5C15.7281 0.5 15.1876 0.723883 14.7891 1.1224C14.3906 1.52091 14.1667 2.06141 14.1667 2.625V32.375C14.1667 32.9386 14.3906 33.4791 14.7891 33.8776C15.1876 34.2761 15.7281 34.5 16.2917 34.5C16.8553 34.5 17.3958 34.2761 17.7943 33.8776C18.1928 33.4791 18.4167 32.9386 18.4167 32.375V2.625C18.4167 2.06141 18.1928 1.52091 17.7943 1.1224C17.3958 0.723883 16.8553 0.5 16.2917 0.5ZM30.4583 6.16667C29.8948 6.16667 29.3542 6.39055 28.9557 6.78906C28.5572 7.18758 28.3333 7.72808 28.3333 8.29167V26.7083C28.3333 27.2719 28.5572 27.8124 28.9557 28.2109C29.3542 28.6094 29.8948 28.8333 30.4583 28.8333C31.0219 28.8333 31.5624 28.6094 31.9609 28.2109C32.3595 27.8124 32.5833 27.2719 32.5833 26.7083V8.29167C32.5833 7.72808 32.3595 7.18758 31.9609 6.78906C31.5624 6.39055 31.0219 6.16667 30.4583 6.16667ZM9.20833 7.58333C8.64475 7.58333 8.10425 7.80722 7.70573 8.20573C7.30722 8.60425 7.08333 9.14475 7.08333 9.70833V25.2917C7.08333 25.8553 7.30722 26.3958 7.70573 26.7943C8.10425 27.1928 8.64475 27.4167 9.20833 27.4167C9.77192 27.4167 10.3124 27.1928 10.7109 26.7943C11.1095 26.3958 11.3333 25.8553 11.3333 25.2917V9.70833C11.3333 9.14475 11.1095 8.60425 10.7109 8.20573C10.3124 7.80722 9.77192 7.58333 9.20833 7.58333ZM2.125 13.25C1.56142 13.25 1.02091 13.4739 0.622398 13.8724C0.223883 14.2709 0 14.8114 0 15.375L0 19.625C0 20.1886 0.223883 20.7291 0.622398 21.1276C1.02091 21.5261 1.56142 21.75 2.125 21.75C2.68859 21.75 3.22909 21.5261 3.6276 21.1276C4.02612 20.7291 4.25 20.1886 4.25 19.625V15.375C4.25 14.8114 4.02612 14.2709 3.6276 13.8724C3.22909 13.4739 2.68859 13.25 2.125 13.25Z" fill="#FF581C"/>
</g>
<defs>
<clipPath id="clip0_243_731">
<rect width="34" height="34" fill="white" transform="translate(0 0.5)"/>
</clipPath>
</defs>
</svg>
