<svg width="17" height="19" viewBox="0 0 17 19" fill="none" xmlns="http://www.w3.org/2000/svg">
<path d="M8.29973 14.9524C8.29999 14.0696 8.53818 13.2031 8.98924 12.4443C9.4403 11.6854 10.0875 11.0621 10.8629 10.6399C11.6382 10.2178 12.513 10.0125 13.3952 10.0455C14.2774 10.0785 15.1344 10.3487 15.876 10.8276C15.8813 10.4637 15.8841 10.0755 15.8841 9.65648C15.8841 7.50234 15.8108 6.15787 15.666 4.76526H15.6866C15.6066 3.98925 15.3102 3.25132 14.8313 2.6355C14.3524 2.01967 13.7102 1.5507 12.9778 1.282C12.9391 1.26734 12.9004 1.25339 12.8613 1.24013C12.5719 1.14284 12.2726 1.07768 11.9689 1.04582L11.94 1.04268C10.7814 0.923727 10.5955 0.828491 8.15251 0.828491C5.70952 0.828491 5.31427 0.923727 4.15679 1.04443L4.12783 1.04757C3.80905 1.08105 3.49521 1.15128 3.19257 1.25688V1.24118C2.43795 1.49775 1.77271 1.96531 1.27573 2.58843C0.778738 3.21155 0.470833 3.96411 0.388511 4.75689C0.24339 6.15229 0.169434 7.49815 0.169434 9.65648C0.169434 11.8148 0.24339 13.1607 0.388511 14.5561C0.487607 15.5083 0.911179 16.3974 1.58816 17.0744C2.26514 17.7513 3.15434 18.1748 4.10655 18.2738L4.13551 18.2769C5.29404 18.3976 5.47962 18.4928 7.92262 18.4928C8.73195 18.4928 9.31802 18.4824 9.77815 18.4639C9.30957 18.0071 8.93731 17.461 8.68338 16.8578C8.42945 16.2547 8.29899 15.6068 8.29973 14.9524ZM4.21818 5.47343H11.8339C12.0543 5.47343 12.2657 5.56097 12.4215 5.71681C12.5773 5.87264 12.6649 6.084 12.6649 6.30439C12.6649 6.52477 12.5773 6.73613 12.4215 6.89196C12.2657 7.0478 12.0543 7.13535 11.8339 7.13535H4.21993C3.99954 7.13535 3.78819 7.0478 3.63235 6.89196C3.47652 6.73613 3.38897 6.52477 3.38897 6.30439C3.38897 6.084 3.47652 5.87264 3.63235 5.71681C3.78819 5.56097 3.99954 5.47343 4.21993 5.47343H4.21818ZM4.21818 10.6912C4.0007 10.6867 3.79363 10.5972 3.6414 10.4418C3.48917 10.2864 3.4039 10.0776 3.4039 9.86004C3.4039 9.64251 3.48917 9.43365 3.6414 9.27826C3.79363 9.12288 4.0007 9.03336 4.21818 9.0289H8.56171C8.67229 9.02664 8.78221 9.04646 8.88503 9.08721C8.98785 9.12796 9.08151 9.18882 9.16051 9.26622C9.23952 9.34363 9.30228 9.43602 9.34513 9.53798C9.38798 9.63995 9.41005 9.74944 9.41005 9.86004C9.41005 9.97064 9.38798 10.0801 9.34513 10.1821C9.30228 10.2841 9.23952 10.3764 9.16051 10.4539C9.08151 10.5313 8.98785 10.5921 8.88503 10.6329C8.78221 10.6736 8.67229 10.6934 8.56171 10.6912H4.21818Z" fill="#D9D9DE"/>
<path d="M13.2109 11.2151C12.4717 11.2151 11.7492 11.4343 11.1346 11.8449C10.52 12.2556 10.041 12.8393 9.75811 13.5221C9.47525 14.205 9.40124 14.9565 9.54544 15.6814C9.68965 16.4064 10.0456 17.0723 10.5682 17.5949C11.0909 18.1176 11.7568 18.4735 12.4818 18.6177C13.2067 18.7619 13.9581 18.6879 14.641 18.4051C15.3239 18.1222 15.9076 17.6432 16.3183 17.0286C16.7289 16.414 16.9481 15.6915 16.9481 14.9523C16.9481 13.9611 16.5543 13.0106 15.8535 12.3097C15.1526 11.6088 14.202 11.2151 13.2109 11.2151ZM14.6921 15.4993H13.1366C13.0186 15.4993 12.9055 15.4525 12.822 15.369C12.7386 15.2856 12.6918 15.1725 12.6918 15.0545V12.6649C12.6918 12.5469 12.7386 12.4338 12.822 12.3504C12.9055 12.267 13.0186 12.2201 13.1366 12.2201C13.2545 12.2201 13.3677 12.267 13.4511 12.3504C13.5345 12.4338 13.5813 12.5469 13.5813 12.6649V14.6097H14.6921C14.81 14.6097 14.9232 14.6566 15.0066 14.74C15.09 14.8234 15.1369 14.9366 15.1369 15.0545C15.1369 15.1725 15.09 15.2856 15.0066 15.369C14.9232 15.4525 14.81 15.4993 14.6921 15.4993Z" fill="#D9D9DE"/>
</svg>
